SplineFontDB: 3.0
FontName: Comme-Regular
FullName: Comme Regular
FamilyName: Comme
Weight: Book
Copyright: Digitized data Copyright (c) 2011-2014, vernon adams.
Version: 2
ItalicAngle: 0
UnderlinePosition: 0
UnderlineWidth: 0
Ascent: 727
Descent: 273
sfntRevision: 0x00020000
LayerCount: 2
Layer: 0 1 "Back"  1
Layer: 1 1 "Fore"  0
XUID: [1021 821 1394843319 927071]
FSType: 0
OS2Version: 0
OS2_WeightWidthSlopeOnly: 0
OS2_UseTypoMetrics: 0
CreationTime: 1396294156
ModificationTime: 1396540940
PfmFamily: 17
TTFWeight: 400
TTFWidth: 5
LineGap: 0
VLineGap: 0
OS2TypoAscent: 0
OS2TypoAOffset: 1
OS2TypoDescent: 0
OS2TypoDOffset: 1
OS2TypoLinegap: 0
OS2WinAscent: 0
OS2WinAOffset: 1
OS2WinDescent: 0
OS2WinDOffset: 1
HheadAscent: 0
HheadAOffset: 1
HheadDescent: 0
HheadDOffset: 1
OS2Vendor: 'NeWT'
Lookup: 4 0 1 "'liga' Standard Ligatures lookup 0"  {"'liga' Standard Ligatures lookup 0 subtable"  } ['liga' ('DFLT' <'dflt' > 'grek' <'dflt' > 'latn' <'dflt' > ) ]
Lookup: 4 0 0 "'frac' Diagonal Fractions lookup 1"  {"'frac' Diagonal Fractions lookup 1 subtable"  } ['frac' ('DFLT' <'dflt' > 'grek' <'dflt' > 'latn' <'CAT ' 'MOL ' 'ROM ' 'TRK ' 'dflt' > ) ]
Lookup: 6 0 0 "'ordn' Ordinals lookup 2"  {"'ordn' Ordinals lookup 2 contextual 0"  "'ordn' Ordinals lookup 2 contextual 1"  } ['ordn' ('DFLT' <'dflt' > 'grek' <'dflt' > 'latn' <'CAT ' 'MOL ' 'ROM ' 'TRK ' 'dflt' > ) ]
Lookup: 1 0 0 "Single Substitution lookup 3"  {"Single Substitution lookup 3 subtable"  } []
Lookup: 1 0 0 "Single Substitution lookup 4"  {"Single Substitution lookup 4 subtable"  } []
Lookup: 4 0 0 "'dlig' Discretionary Ligatures lookup 5"  {"'dlig' Discretionary Ligatures lookup 5 subtable"  } ['dlig' ('DFLT' <'dflt' > 'grek' <'dflt' > 'latn' <'CAT ' 'MOL ' 'ROM ' 'TRK ' 'dflt' > ) ]
MarkAttachClasses: 1
DEI: 91125
ChainSub2: coverage "'ordn' Ordinals lookup 2 contextual 1"  0 0 0 1
 1 1 0
  Coverage: 3 O o
  BCoverage: 49 zero one two three four five six seven eight nine
 1

StartChar: .notdef
Encoding: 65536 -1 0
Width: 364
Flags: W
LayerCount: 2
Fore
SplineSet
34 0 m 1,0,-1
 34 693 l 1,1,-1
 310 693 l 1,2,-1
 310 0 l 1,3,-1
 34 0 l 1,0,-1
69 34 m 1,4,-1
 276 34 l 1,5,-1
 276 658 l 1,6,-1
 69 658 l 1,7,-1
 69 34 l 1,4,-1
EndSplineSet
EndChar

StartChar: exclam
Encoding: 33 33 4
Width: 314
GlyphClass: 2
Flags: W
LayerCount: 2
Fore
SplineSet
159 -5 m 256,0,1
 133 -5 133 -5 119 11.5 c 128,-1,2
 105 28 105 28 105 51 c 128,-1,3
 105 74 105 74 119 90 c 128,-1,4
 133 106 133 106 159 106 c 128,-1,5
 185 106 185 106 199 90 c 128,-1,6
 213 74 213 74 213 50.5 c 128,-1,7
 213 27 213 27 199 11 c 128,-1,8
 185 -5 185 -5 159 -5 c 256,0,1
142 198 m 1,9,-1
 116 609 l 1,10,-1
 116 670 l 1,11,-1
 200 670 l 1,12,-1
 200 609 l 1,13,-1
 176 198 l 1,14,-1
 142 198 l 1,9,-1
EndSplineSet
EndChar

StartChar: quotedbl
Encoding: 34 34 5
Width: 308
GlyphClass: 2
Flags: W
LayerCount: 2
Fore
SplineSet
214 454 m 1,0,-1
 186 699 l 1,1,-1
 274 699 l 1,2,-1
 256 454 l 1,3,-1
 214 454 l 1,0,-1
78 454 m 1,4,-1
 49 699 l 1,5,-1
 135 699 l 1,6,-1
 118 454 l 1,7,-1
 78 454 l 1,4,-1
EndSplineSet
EndChar

StartChar: numbersign
Encoding: 35 35 6
Width: 508
GlyphClass: 2
Flags: W
LayerCount: 2
Fore
SplineSet
178 246 m 1,0,-1
 314 246 l 1,1,-1
 355 451 l 1,2,-1
 219 451 l 1,3,-1
 178 246 l 1,0,-1
77 -8 m 1,4,-1
 119 202 l 1,5,-1
 30 202 l 1,6,-1
 35 246 l 1,7,-1
 127 246 l 1,8,-1
 168 451 l 1,9,-1
 79 451 l 1,10,-1
 85 495 l 1,11,-1
 177 495 l 1,12,-1
 223 708 l 1,13,-1
 274 708 l 1,14,-1
 229 495 l 1,15,-1
 364 495 l 1,16,-1
 410 708 l 1,17,-1
 459 708 l 1,18,-1
 413 495 l 1,19,-1
 508 495 l 1,20,-1
 500 451 l 1,21,-1
 405 451 l 1,22,-1
 363 246 l 1,23,-1
 464 246 l 1,24,-1
 457 202 l 1,25,-1
 354 202 l 1,26,-1
 312 -8 l 1,27,-1
 263 -8 l 1,28,-1
 304 202 l 1,29,-1
 170 202 l 1,30,-1
 127 -8 l 1,31,-1
 77 -8 l 1,4,-1
EndSplineSet
EndChar

StartChar: dollar
Encoding: 36 36 7
Width: 536
GlyphClass: 2
Flags: W
LayerCount: 2
Fore
SplineSet
250 20 m 1,0,-1
 312 20 l 1,1,-1
 305 -135 l 1,2,-1
 250 -135 l 1,3,-1
 250 20 l 1,0,-1
258 807 m 1,4,-1
 250 652 l 1,5,-1
 315 652 l 1,6,-1
 315 807 l 1,7,-1
 258 807 l 1,4,-1
394.5 242 m 128,-1,9
 370 264 370 264 292 296 c 2,10,-1
 199 335 l 2,11,12
 120 367 120 367 86.5 399 c 128,-1,13
 53 431 53 431 53 495 c 0,14,15
 53 675 53 675 284 675 c 0,16,17
 419 675 419 675 494 589 c 1,18,-1
 446 542 l 1,19,-1
 440 542 l 1,20,21
 387 604 387 604 280 604 c 0,22,23
 143 604 143 604 142 505 c 0,24,25
 142 468 142 468 161.5 450 c 128,-1,26
 181 432 181 432 238 408 c 2,27,-1
 332 370 l 2,28,29
 425 334 425 334 464 295 c 128,-1,30
 503 256 503 256 503 182.5 c 128,-1,31
 503 109 503 109 468 66 c 128,-1,32
 433 23 433 23 383.5 7 c 128,-1,33
 334 -9 334 -9 266.5 -9 c 128,-1,34
 199 -9 199 -9 140.5 16 c 128,-1,35
 82 41 82 41 52 78 c 1,36,-1
 100 126 l 1,37,-1
 106 126 l 1,38,39
 174 60 174 60 274 60 c 0,40,41
 341 60 341 60 380 88 c 128,-1,42
 419 116 419 116 419 168 c 128,-1,8
 419 220 419 220 394.5 242 c 128,-1,9
EndSplineSet
EndChar

StartChar: percent
Encoding: 37 37 8
Width: 712
GlyphClass: 2
Flags: W
LayerCount: 2
Fore
SplineSet
528 -2 m 0,0,1
 388 -2 388 -2 388 174 c 0,2,3
 388 254 388 254 422 302 c 128,-1,4
 456 350 456 350 528 350 c 0,5,6
 670 350 670 350 671 174 c 0,7,8
 671 94 671 94 636.5 46 c 128,-1,9
 602 -2 602 -2 528 -2 c 0,0,1
595.5 79.5 m 128,-1,11
 614 113 614 113 614 175 c 128,-1,12
 614 237 614 237 596 269.5 c 128,-1,13
 578 302 578 302 529 302 c 128,-1,14
 480 302 480 302 462.5 269 c 128,-1,15
 445 236 445 236 445 174 c 128,-1,16
 445 112 445 112 462.5 79 c 128,-1,17
 480 46 480 46 528.5 46 c 128,-1,10
 577 46 577 46 595.5 79.5 c 128,-1,11
128 0 m 1,18,-1
 509 669 l 1,19,-1
 569 669 l 1,20,-1
 193 0 l 1,21,-1
 128 0 l 1,18,-1
170 327 m 0,22,23
 32 327 32 327 31 502 c 0,24,25
 31 582 31 582 64.5 630 c 128,-1,26
 98 678 98 678 170 678 c 0,27,28
 312 678 312 678 312 502 c 0,29,30
 312 422 312 422 278 374.5 c 128,-1,31
 244 327 244 327 170 327 c 0,22,23
236 408 m 128,-1,33
 254 442 254 442 254 504 c 128,-1,34
 254 566 254 566 236.5 598 c 128,-1,35
 219 630 219 630 170.5 630 c 128,-1,36
 122 630 122 630 103.5 597.5 c 128,-1,37
 85 565 85 565 85 502.5 c 128,-1,38
 85 440 85 440 103.5 407 c 128,-1,39
 122 374 122 374 170 374 c 128,-1,32
 218 374 218 374 236 408 c 128,-1,33
EndSplineSet
EndChar

StartChar: ampersand
Encoding: 38 38 9
Width: 623
GlyphClass: 2
Flags: W
LayerCount: 2
Fore
SplineSet
275 619 m 256,0,1
 231 619 231 619 202 594 c 128,-1,2
 173 569 173 569 173 533 c 128,-1,3
 173 497 173 497 187.5 466.5 c 128,-1,4
 202 436 202 436 239 392 c 1,5,6
 300 424 300 424 332.5 455 c 128,-1,7
 365 486 365 486 365 529.5 c 128,-1,8
 365 573 365 573 342 596 c 128,-1,9
 319 619 319 619 275 619 c 256,0,1
43 180 m 0,10,11
 43 247 43 247 76.5 287 c 128,-1,12
 110 327 110 327 181 362 c 1,13,14
 101 445 101 445 101 529 c 0,15,16
 101 596 101 596 150 637 c 128,-1,17
 199 678 199 678 272.5 678 c 128,-1,18
 346 678 346 678 391.5 640.5 c 128,-1,19
 437 603 437 603 437 535 c 0,20,21
 437 500 437 500 424.5 471.5 c 128,-1,22
 412 443 412 443 379.5 414.5 c 128,-1,23
 347 386 347 386 278 349 c 1,24,25
 456 173 l 1,26,27
 503 235 503 235 562 348 c 1,28,-1
 613 314 l 1,29,30
 546 181 546 181 503 127 c 1,31,-1
 594 36 l 1,32,-1
 549 -10 l 1,33,-1
 461 78 l 1,34,35
 372 -9 372 -9 252 -9 c 0,36,37
 157 -9 157 -9 100 43.5 c 128,-1,38
 43 96 43 96 43 180 c 0,10,11
263 56 m 0,39,40
 348 56 348 56 415 124 c 1,41,-1
 220 317 l 1,42,43
 169 290 169 290 144.5 259.5 c 128,-1,44
 120 229 120 229 120 176.5 c 128,-1,45
 120 124 120 124 157.5 90 c 128,-1,46
 195 56 195 56 263 56 c 0,39,40
EndSplineSet
EndChar

StartChar: quotesingle
Encoding: 39 39 10
Width: 181
GlyphClass: 2
Flags: W
LayerCount: 2
Fore
SplineSet
70 437 m 1,0,-1
 47 687 l 1,1,-1
 130 687 l 1,2,-1
 116 437 l 1,3,-1
 70 437 l 1,0,-1
EndSplineSet
EndChar

StartChar: parenleft
Encoding: 40 40 11
Width: 340
GlyphClass: 2
Flags: W
LayerCount: 2
Fore
SplineSet
215 -108 m 1,0,1
 97 80 97 80 97.5 309.5 c 128,-1,2
 98 539 98 539 215 727 c 1,3,-1
 283 727 l 1,4,-1
 283 711 l 1,5,6
 170 526 170 526 170 310 c 128,-1,7
 170 94 170 94 283 -93 c 1,8,-1
 283 -108 l 1,9,-1
 215 -108 l 1,0,1
EndSplineSet
EndChar

StartChar: parenright
Encoding: 41 41 12
Width: 340
GlyphClass: 2
Flags: W
LayerCount: 2
Fore
SplineSet
142 -108 m 1,0,1
 75 -108 l 1,2,-1
 75 -93 l 1,3,4
 188 93 188 93 188 309.5 c 128,-1,5
 188 526 188 526 75 711 c 1,6,-1
 75 727 l 1,7,-1
 142 727 l 1,8,9
 260 539 260 539 260 309.5 c 128,-1,10
 260 80 260 80 142 -108 c 1,0,1
EndSplineSet
EndChar

StartChar: asterisk
Encoding: 42 42 13
Width: 415
GlyphClass: 2
Flags: W
LayerCount: 2
Fore
SplineSet
304 268 m 1,0,-1
 215 423 l 1,1,-1
 135 268 l 1,2,-1
 71 308 l 1,3,-1
 177 450 l 1,4,-1
 21 486 l 1,5,-1
 42 557 l 1,6,-1
 194 492 l 1,7,-1
 180 669 l 1,8,-1
 257 669 l 1,9,-1
 239 492 l 1,10,-1
 395 557 l 1,11,-1
 415 486 l 1,12,-1
 258 450 l 1,13,14
 338 344 338 344 366 308 c 1,15,-1
 304 268 l 1,0,-1
EndSplineSet
EndChar

StartChar: plus
Encoding: 43 43 14
Width: 501
GlyphClass: 2
Flags: W
LayerCount: 2
Fore
SplineSet
217 531 m 1,0,-1
 298 531 l 1,1,-1
 298 359 l 1,2,-1
 462 359 l 1,3,-1
 462 280 l 1,4,-1
 298 280 l 1,5,-1
 298 104 l 1,6,-1
 217 104 l 1,7,-1
 217 280 l 1,8,-1
 53 280 l 1,9,-1
 53 359 l 1,10,-1
 217 359 l 1,11,-1
 217 531 l 1,0,-1
EndSplineSet
EndChar

StartChar: comma
Encoding: 44 44 15
Width: 276
GlyphClass: 2
Flags: W
LayerCount: 2
Fore
SplineSet
88 -139 m 1,0,-1
 107 109 l 1,1,-1
 191 109 l 1,2,-1
 191 68 l 1,3,-1
 136 -139 l 1,4,-1
 88 -139 l 1,0,-1
EndSplineSet
EndChar

StartChar: hyphen
Encoding: 45 45 16
Width: 378
GlyphClass: 4
Flags: W
LayerCount: 2
Fore
SplineSet
79 239 m 1,0,-1
 79 304 l 1,1,-1
 312 304 l 1,2,-1
 312 239 l 1,3,-1
 79 239 l 1,0,-1
EndSplineSet
EndChar

StartChar: period
Encoding: 46 46 17
Width: 278
GlyphClass: 2
Flags: W
LayerCount: 2
Fore
SplineSet
146 -4 m 128,-1,1
 98 -4 98 -4 98 51 c 128,-1,2
 98 106 98 106 146 106 c 128,-1,3
 194 106 194 106 194 51 c 128,-1,0
 194 -4 194 -4 146 -4 c 128,-1,1
EndSplineSet
EndChar

StartChar: slash
Encoding: 47 47 18
Width: 425
GlyphClass: 2
Flags: W
LayerCount: 2
Fore
SplineSet
58 -67 m 1,0,-1
 339 713 l 1,1,-1
 409 713 l 1,2,-1
 127 -67 l 1,3,-1
 58 -67 l 1,0,-1
EndSplineSet
EndChar

StartChar: zero
Encoding: 48 48 19
Width: 553
GlyphClass: 2
Flags: W
LayerCount: 2
Fore
SplineSet
290 -9 m 256,0,1
 175 -9 175 -9 117.5 78 c 128,-1,2
 60 165 60 165 60 325.5 c 128,-1,3
 60 486 60 486 119.5 580.5 c 128,-1,4
 179 675 179 675 290 675 c 128,-1,5
 401 675 401 675 458.5 581 c 128,-1,6
 516 487 516 487 516 325.5 c 128,-1,7
 516 164 516 164 460.5 77.5 c 128,-1,8
 405 -9 405 -9 290 -9 c 256,0,1
290 61 m 0,9,10
 360 61 360 61 395.5 123.5 c 128,-1,11
 431 186 431 186 431 324 c 0,12,13
 431 604 431 604 290 604 c 0,14,15
 222 604 222 604 184 531.5 c 128,-1,16
 146 459 146 459 146 324 c 0,17,18
 145 61 145 61 290 61 c 0,9,10
EndSplineSet
EndChar

StartChar: one
Encoding: 49 49 20
Width: 553
GlyphClass: 2
Flags: W
LayerCount: 2
Fore
SplineSet
90 0 m 1,0,-1
 90 61 l 1,1,-1
 268 61 l 1,2,-1
 268 588 l 1,3,4
 231 568 231 568 177.5 549 c 128,-1,5
 124 530 124 530 96 527 c 1,6,-1
 96 594 l 1,7,8
 130 602 130 602 191 625 c 128,-1,9
 252 648 252 648 277 666 c 1,10,-1
 353 666 l 1,11,-1
 353 61 l 1,12,-1
 512 61 l 1,13,-1
 512 0 l 1,14,-1
 90 0 l 1,0,-1
EndSplineSet
EndChar

StartChar: two
Encoding: 50 50 21
Width: 553
GlyphClass: 2
Flags: W
LayerCount: 2
Fore
SplineSet
122 543 m 1,0,1
 113 543 l 1,2,-1
 73 592 l 1,3,4
 107 630 107 630 160.5 652.5 c 128,-1,5
 214 675 214 675 274 675 c 0,6,7
 366 675 366 675 426.5 625 c 128,-1,8
 487 575 487 575 487 484 c 0,9,10
 487 417 487 417 461.5 373.5 c 128,-1,11
 436 330 436 330 364 261 c 2,12,-1
 164 70 l 1,13,-1
 478 70 l 1,14,-1
 474 0 l 1,15,-1
 79 0 l 1,16,-1
 67 73 l 1,17,-1
 314 315 l 2,18,19
 367 367 367 367 387 399.5 c 128,-1,20
 407 432 407 432 407 488 c 128,-1,21
 407 544 407 544 368.5 574 c 128,-1,22
 330 604 330 604 279 604 c 128,-1,23
 228 604 228 604 187.5 588 c 128,-1,24
 147 572 147 572 122 543 c 1,0,1
EndSplineSet
EndChar

StartChar: three
Encoding: 51 51 22
Width: 547
GlyphClass: 2
Flags: W
LayerCount: 2
Fore
SplineSet
353 352 m 1,0,1
 422 340 422 340 458.5 292.5 c 128,-1,2
 495 245 495 245 495 171.5 c 128,-1,3
 495 98 495 98 438.5 44.5 c 128,-1,4
 382 -9 382 -9 283 -9 c 0,5,6
 223 -9 223 -9 166.5 16.5 c 128,-1,7
 110 42 110 42 79 97 c 1,8,-1
 128 135 l 1,9,-1
 135 135 l 1,10,11
 181 60 181 60 282 60 c 0,12,13
 339 60 339 60 375.5 91 c 128,-1,14
 412 122 412 122 412 179 c 0,15,16
 412 255 412 255 367 284.5 c 128,-1,17
 322 314 322 314 229 314 c 2,18,-1
 207 314 l 1,19,-1
 196 383 l 1,20,-1
 230 383 l 2,21,22
 395 383 395 383 395 494 c 2,23,-1
 395 501 l 2,24,25
 395 550 395 550 367 577 c 128,-1,26
 339 604 339 604 285 604 c 2,27,-1
 278 604 l 2,28,29
 185 604 185 604 135 523 c 1,30,-1
 126 523 l 1,31,-1
 78 562 l 1,32,33
 108 624 108 624 166.5 649.5 c 128,-1,34
 225 675 225 675 285 675 c 0,35,36
 374 675 374 675 425 628 c 128,-1,37
 476 581 476 581 476 501 c 0,38,39
 477 381 477 381 353 352 c 1,0,1
EndSplineSet
EndChar

StartChar: four
Encoding: 52 52 23
Width: 553
GlyphClass: 2
Flags: W
LayerCount: 2
Fore
SplineSet
145 236 m 1,0,-1
 355 236 l 1,1,-1
 355 565 l 1,2,-1
 145 236 l 1,0,-1
355 0 m 1,3,-1
 355 171 l 1,4,-1
 82 171 l 1,5,-1
 60 237 l 1,6,-1
 348 666 l 1,7,-1
 439 666 l 1,8,-1
 439 237 l 1,9,-1
 518 237 l 1,10,-1
 512 171 l 1,11,-1
 439 171 l 1,12,-1
 439 0 l 1,13,-1
 355 0 l 1,3,-1
EndSplineSet
EndChar

StartChar: five
Encoding: 53 53 24
Width: 553
GlyphClass: 2
Flags: W
LayerCount: 2
Fore
SplineSet
304 365 m 0,0,1
 227 365 227 365 184 308 c 1,2,-1
 116 318 l 1,3,-1
 137 666 l 1,4,-1
 478 666 l 1,5,-1
 469 599 l 1,6,-1
 216 599 l 1,7,-1
 194 382 l 1,8,9
 246 429 246 429 317 428 c 0,10,11
 413 428 413 428 466.5 365 c 128,-1,12
 520 302 520 302 520 213 c 128,-1,13
 520 124 520 124 458.5 57.5 c 128,-1,14
 397 -9 397 -9 286 -9 c 0,15,16
 214 -9 214 -9 160 20.5 c 128,-1,17
 106 50 106 50 82 89 c 1,18,-1
 131 136 l 1,19,-1
 137 136 l 1,20,21
 191 61 191 61 285 61 c 0,22,23
 355 61 355 61 393 106.5 c 128,-1,24
 431 152 431 152 431 214 c 128,-1,25
 431 276 431 276 396.5 320.5 c 128,-1,26
 362 365 362 365 304 365 c 0,0,1
EndSplineSet
EndChar

StartChar: six
Encoding: 54 54 25
Width: 553
GlyphClass: 2
Flags: W
LayerCount: 2
Fore
SplineSet
295 57 m 256,0,1
 359 57 359 57 396.5 99 c 128,-1,2
 434 141 434 141 434 203 c 128,-1,3
 434 265 434 265 398 304.5 c 128,-1,4
 362 344 362 344 303.5 344 c 128,-1,5
 245 344 245 344 202 310 c 128,-1,6
 159 276 159 276 159 208 c 128,-1,7
 159 140 159 140 195 98.5 c 128,-1,8
 231 57 231 57 295 57 c 256,0,1
203 360 m 1,9,10
 259 408 259 408 333.5 408 c 128,-1,11
 408 408 408 408 462 351 c 128,-1,12
 516 294 516 294 516 203 c 128,-1,13
 516 112 516 112 456 51.5 c 128,-1,14
 396 -9 396 -9 296.5 -9 c 128,-1,15
 197 -9 197 -9 137.5 53.5 c 128,-1,16
 78 116 78 116 78 206 c 0,17,18
 78 275 78 275 101 329.5 c 128,-1,19
 124 384 124 384 175 453 c 2,20,-1
 331 666 l 1,21,-1
 419 666 l 1,22,-1
 419 655 l 1,23,-1
 203 360 l 1,9,10
EndSplineSet
EndChar

StartChar: seven
Encoding: 55 55 26
Width: 553
GlyphClass: 2
Flags: W
LayerCount: 2
Fore
SplineSet
157 0 m 1,0,-1
 402 598 l 1,1,-1
 86 598 l 1,2,-1
 78 666 l 1,3,-1
 491 666 l 1,4,-1
 491 604 l 1,5,-1
 242 0 l 1,6,-1
 157 0 l 1,0,-1
EndSplineSet
EndChar

StartChar: eight
Encoding: 56 56 27
Width: 553
GlyphClass: 2
Flags: W
LayerCount: 2
Fore
SplineSet
288 374 m 1,0,1
 411 403 411 403 411 510 c 0,2,3
 411 558 411 558 377.5 586 c 128,-1,4
 344 614 344 614 288 614 c 128,-1,5
 232 614 232 614 198 585.5 c 128,-1,6
 164 557 164 557 164 510 c 0,7,8
 164 404 164 404 288 374 c 1,0,1
426 175 m 0,9,10
 426 231 426 231 388 267.5 c 128,-1,11
 350 304 350 304 288 318 c 1,12,13
 225 303 225 303 187 267 c 128,-1,14
 149 231 149 231 149 174 c 0,15,16
 149 55 149 55 287.5 55 c 128,-1,17
 426 55 426 55 426 175 c 0,9,10
288 -9 m 256,18,19
 192 -9 192 -9 131 36.5 c 128,-1,20
 70 82 70 82 70 167 c 0,21,22
 70 301 70 301 206 349 c 1,23,24
 150 367 150 367 116 408.5 c 128,-1,25
 82 450 82 450 82 510 c 0,26,27
 82 588 82 588 139.5 631.5 c 128,-1,28
 197 675 197 675 288.5 675 c 128,-1,29
 380 675 380 675 436 631.5 c 128,-1,30
 492 588 492 588 492 510 c 0,31,32
 492 397 492 397 371 350 c 1,33,34
 432 329 432 329 469 280.5 c 128,-1,35
 506 232 506 232 506 167 c 0,36,37
 506 82 506 82 445 36.5 c 128,-1,38
 384 -9 384 -9 288 -9 c 256,18,19
EndSplineSet
EndChar

StartChar: nine
Encoding: 57 57 28
Width: 553
GlyphClass: 2
Flags: W
LayerCount: 2
Fore
SplineSet
405 567.5 m 128,-1,1
 368 609 368 609 303.5 609 c 128,-1,2
 239 609 239 609 200.5 567 c 128,-1,3
 162 525 162 525 162 463 c 128,-1,4
 162 401 162 401 197 361 c 128,-1,5
 232 321 232 321 292 321 c 128,-1,6
 352 321 352 321 397 356 c 128,-1,7
 442 391 442 391 442 458.5 c 128,-1,0
 442 526 442 526 405 567.5 c 128,-1,1
383 291 m 1,8,9
 331 258 331 258 275 258 c 0,10,11
 192 258 192 258 135.5 315 c 128,-1,12
 79 372 79 372 79 463 c 128,-1,13
 79 554 79 554 141.5 614.5 c 128,-1,14
 204 675 204 675 304 675 c 128,-1,15
 404 675 404 675 463.5 612 c 128,-1,16
 523 549 523 549 523 460 c 0,17,18
 523 392 523 392 497.5 337.5 c 128,-1,19
 472 283 472 283 418 214 c 2,20,-1
 252 0 l 1,21,-1
 161 0 l 1,22,-1
 161 10 l 1,23,24
 329 220 329 220 383 291 c 1,8,9
EndSplineSet
EndChar

StartChar: colon
Encoding: 58 58 29
Width: 288
GlyphClass: 2
Flags: W
LayerCount: 2
Fore
SplineSet
149 -4 m 256,0,1
 122 -4 122 -4 107 12.5 c 128,-1,2
 92 29 92 29 92 53 c 128,-1,3
 92 77 92 77 107 94 c 128,-1,4
 122 111 122 111 149 111 c 128,-1,5
 176 111 176 111 190.5 94.5 c 128,-1,6
 205 78 205 78 205 53.5 c 128,-1,7
 205 29 205 29 190.5 12.5 c 128,-1,8
 176 -4 176 -4 149 -4 c 256,0,1
149 381 m 256,9,10
 122 381 122 381 107 397.5 c 128,-1,11
 92 414 92 414 92 438 c 128,-1,12
 92 462 92 462 107 479 c 128,-1,13
 122 496 122 496 149 496 c 128,-1,14
 176 496 176 496 190.5 479.5 c 128,-1,15
 205 463 205 463 205 438.5 c 128,-1,16
 205 414 205 414 190.5 397.5 c 128,-1,17
 176 381 176 381 149 381 c 256,9,10
EndSplineSet
EndChar

StartChar: semicolon
Encoding: 59 59 30
Width: 314
GlyphClass: 2
Flags: W
LayerCount: 2
Fore
SplineSet
171 380 m 256,0,1
 144 380 144 380 128.5 397 c 128,-1,2
 113 414 113 414 113 438 c 128,-1,3
 113 462 113 462 128.5 479 c 128,-1,4
 144 496 144 496 171 496 c 128,-1,5
 198 496 198 496 212.5 479.5 c 128,-1,6
 227 463 227 463 227 438 c 128,-1,7
 227 413 227 413 212.5 396.5 c 128,-1,8
 198 380 198 380 171 380 c 256,0,1
113 -139 m 1,9,-1
 132 109 l 1,10,-1
 215 109 l 1,11,-1
 215 68 l 1,12,-1
 162 -139 l 1,13,-1
 113 -139 l 1,9,-1
EndSplineSet
EndChar

StartChar: less
Encoding: 60 60 31
Width: 486
GlyphClass: 2
Flags: W
LayerCount: 2
Fore
SplineSet
462 63 m 1,0,-1
 35 274 l 1,1,-1
 35 315 l 1,2,-1
 462 539 l 1,3,-1
 462 470 l 1,4,-1
 127 295 l 1,5,-1
 462 135 l 1,6,-1
 462 63 l 1,0,-1
EndSplineSet
EndChar

StartChar: equal
Encoding: 61 61 32
Width: 469
GlyphClass: 2
Flags: W
LayerCount: 2
Fore
SplineSet
58 260 m 1,0,-1
 434 260 l 1,1,-1
 434 190 l 1,2,-1
 58 190 l 1,3,-1
 58 260 l 1,0,-1
58 437 m 1,4,-1
 434 437 l 1,5,-1
 434 368 l 1,6,-1
 58 368 l 1,7,-1
 58 437 l 1,4,-1
EndSplineSet
EndChar

StartChar: greater
Encoding: 62 62 33
Width: 486
GlyphClass: 2
Flags: W
LayerCount: 2
Fore
SplineSet
43 472 m 1,0,-1
 43 542 l 1,1,-1
 468 314 l 1,2,-1
 468 272 l 1,3,-1
 42 67 l 1,4,-1
 42 136 l 1,5,-1
 373 295 l 1,6,-1
 43 472 l 1,0,-1
EndSplineSet
EndChar

StartChar: question
Encoding: 63 63 34
Width: 405
GlyphClass: 2
Flags: W
LayerCount: 2
Fore
SplineSet
170 -6 m 256,0,1
 144 -6 144 -6 129.5 9.5 c 128,-1,2
 115 25 115 25 115 47.5 c 128,-1,3
 115 70 115 70 129.5 85.5 c 128,-1,4
 144 101 144 101 170 101 c 128,-1,5
 196 101 196 101 209.5 85.5 c 128,-1,6
 223 70 223 70 223 47.5 c 128,-1,7
 223 25 223 25 209.5 9.5 c 128,-1,8
 196 -6 196 -6 170 -6 c 256,0,1
152 197 m 1,9,10
 155 245 155 245 174 293 c 128,-1,11
 193 341 193 341 215 373 c 0,12,13
 271 456 271 456 270 514 c 0,14,15
 270 610 270 610 182 609 c 0,16,17
 127 609 127 609 71 570 c 1,18,-1
 53 632 l 1,19,20
 111 678 111 678 185.5 678 c 128,-1,21
 260 678 260 678 305 638.5 c 128,-1,22
 350 599 350 599 350 525 c 128,-1,23
 350 451 350 451 308 393 c 0,24,25
 289 368 289 368 268 342 c 0,26,27
 213 274 213 274 189 196 c 1,28,-1
 152 197 l 1,9,10
EndSplineSet
EndChar

StartChar: at
Encoding: 64 64 35
Width: 852
GlyphClass: 2
Flags: W
LayerCount: 2
Fore
SplineSet
411 154 m 0,0,1
 459 154 459 154 481 195.5 c 128,-1,2
 503 237 503 237 516 318 c 1,3,-1
 536 435 l 1,4,5
 491 444 491 444 473 444 c 0,6,7
 412 444 412 444 372.5 393 c 128,-1,8
 333 342 333 342 333 265 c 0,9,10
 333 154 333 154 411 154 c 0,0,1
168.5 10.5 m 128,-1,12
 68 110 68 110 68 281 c 128,-1,13
 68 452 68 452 180 565.5 c 128,-1,14
 292 679 292 679 464 679 c 0,15,16
 615 679 615 679 713.5 587 c 128,-1,17
 812 495 812 495 812 344 c 0,18,19
 812 231 812 231 759 166 c 128,-1,20
 706 101 706 101 641 101 c 1,21,22
 633 108 633 108 605 122.5 c 128,-1,23
 577 137 577 137 557.5 155 c 128,-1,24
 538 173 538 173 531 200 c 1,25,26
 486 98 486 98 404 98 c 0,27,28
 340 98 340 98 302.5 144 c 128,-1,29
 265 190 265 190 265 262 c 0,30,31
 265 356 265 356 319 425.5 c 128,-1,32
 373 495 373 495 458.5 495 c 128,-1,33
 544 495 544 495 613 461 c 1,34,35
 610 436 610 436 603 394 c 128,-1,36
 596 352 596 352 592.5 327 c 128,-1,37
 589 302 589 302 585.5 272.5 c 128,-1,38
 582 243 582 243 582 218.5 c 128,-1,39
 582 194 582 194 599 176 c 128,-1,40
 616 158 616 158 641 158 c 0,41,42
 684 158 684 158 717 209 c 128,-1,43
 750 260 750 260 750 348 c 0,44,45
 750 469 750 469 675 545.5 c 128,-1,46
 600 622 600 622 457 622 c 128,-1,47
 314 622 314 622 225.5 523.5 c 128,-1,48
 137 425 137 425 137 281.5 c 128,-1,49
 137 138 137 138 215 54 c 128,-1,50
 293 -30 293 -30 430 -30 c 128,-1,51
 567 -30 567 -30 649 23 c 1,52,-1
 669 -26 l 1,53,54
 577 -89 577 -89 423 -89 c 128,-1,11
 269 -89 269 -89 168.5 10.5 c 128,-1,12
EndSplineSet
EndChar

StartChar: A
Encoding: 65 65 36
Width: 622
GlyphClass: 2
Flags: W
LayerCount: 2
Fore
SplineSet
278 666 m 1,0,-1
 369 666 l 1,1,-1
 620 0 l 1,2,-1
 531 0 l 1,3,-1
 454 207 l 1,4,-1
 192 207 l 1,5,-1
 116 0 l 1,6,-1
 29 0 l 1,7,-1
 278 666 l 1,0,-1
213 268 m 1,8,-1
 435 268 l 1,9,-1
 323 579 l 1,10,-1
 213 268 l 1,8,-1
EndSplineSet
Substitution2: "Single Substitution lookup 3 subtable" ordfeminine
EndChar

StartChar: B
Encoding: 66 66 37
Width: 603
GlyphClass: 2
Flags: W
LayerCount: 2
Fore
SplineSet
255 -4 m 0,0,1
 213 -4 213 -4 93 4 c 1,2,-1
 93 655 l 1,3,4
 212 670 212 670 285 670 c 0,5,6
 419 670 419 670 482 632 c 0,7,8
 508 616 508 616 523 591.5 c 128,-1,9
 538 567 538 567 541 547.5 c 128,-1,10
 544 528 544 528 544 501 c 0,11,12
 544 397 544 397 431 361 c 1,13,14
 567 329 567 329 567 198 c 0,15,16
 567 91 567 91 494.5 43.5 c 128,-1,17
 422 -4 422 -4 255 -4 c 0,0,1
182 601 m 1,18,19
 182 389 l 1,20,-1
 305 389 l 2,21,22
 379 389 379 389 421 412 c 128,-1,23
 463 435 463 435 463 494 c 128,-1,24
 463 553 463 553 424 579.5 c 128,-1,25
 385 606 385 606 288 606 c 0,26,27
 233 606 233 606 182 601 c 1,18,19
182 328 m 1,28,-1
 182 66 l 1,29,30
 246 62 246 62 269 61 c 0,31,32
 410 61 410 61 448 101 c 0,33,34
 468 122 468 122 473.5 142 c 128,-1,35
 479 162 479 162 479 194 c 0,36,37
 479 265 479 265 437 296.5 c 128,-1,38
 395 328 395 328 301 328 c 2,39,-1
 182 328 l 1,28,-1
EndSplineSet
EndChar

StartChar: C
Encoding: 67 67 38
Width: 629
GlyphClass: 2
Flags: W
LayerCount: 2
Fore
SplineSet
614 501 m 1,0,1
 548 478 l 1,2,-1
 542 478 l 1,3,4
 530 533 530 533 482 568.5 c 128,-1,5
 434 604 434 604 371 604 c 0,6,7
 272 604 272 604 216 535 c 128,-1,8
 160 466 160 466 160 333 c 128,-1,9
 160 200 160 200 217 130 c 128,-1,10
 274 60 274 60 371 60 c 0,11,12
 433 60 433 60 482 96.5 c 128,-1,13
 531 133 531 133 544 188 c 1,14,-1
 550 188 l 1,15,-1
 615 164 l 1,16,17
 598 81 598 81 527 36 c 128,-1,18
 456 -9 456 -9 366 -9 c 0,19,20
 231 -9 231 -9 150.5 81.5 c 128,-1,21
 70 172 70 172 70 333 c 128,-1,22
 70 494 70 494 150.5 585 c 128,-1,23
 231 676 231 676 366 676 c 0,24,25
 454 676 454 676 525.5 630 c 128,-1,26
 597 584 597 584 614 501 c 1,0,1
EndSplineSet
EndChar

StartChar: D
Encoding: 68 68 39
Width: 658
GlyphClass: 2
Flags: W
LayerCount: 2
Fore
SplineSet
93 4 m 1,0,1
 93 655 l 1,2,3
 198 669 198 669 266 669 c 1,4,5
 473 669 473 669 548 578 c 0,6,7
 585 533 585 533 600.5 476.5 c 128,-1,8
 616 420 616 420 616 341 c 0,9,10
 616 177 616 177 527 86.5 c 128,-1,11
 438 -4 438 -4 233 -4 c 0,12,13
 161 -4 161 -4 93 4 c 1,0,1
182 61 m 1,14,15
 208 58 208 58 256 58 c 0,16,17
 413 58 413 58 474 138 c 0,18,19
 504 177 504 177 515.5 224.5 c 128,-1,20
 527 272 527 272 527 338 c 0,21,22
 527 473 527 473 473.5 539 c 128,-1,23
 420 605 420 605 274 605 c 0,24,25
 224 605 224 605 182 600 c 1,26,-1
 182 61 l 1,14,15
EndSplineSet
EndChar

StartChar: E
Encoding: 69 69 40
Width: 575
GlyphClass: 2
Flags: W
LayerCount: 2
Fore
SplineSet
93 666 m 1,0,-1
 530 666 l 1,1,-1
 528 599 l 1,2,-1
 182 599 l 1,3,-1
 182 379 l 1,4,-1
 501 379 l 1,5,-1
 501 311 l 1,6,-1
 182 311 l 1,7,-1
 182 68 l 1,8,-1
 539 68 l 1,9,-1
 532 0 l 1,10,-1
 93 0 l 1,11,-1
 93 666 l 1,0,-1
EndSplineSet
EndChar

StartChar: F
Encoding: 70 70 41
Width: 528
GlyphClass: 2
Flags: W
LayerCount: 2
Fore
SplineSet
93 666 m 1,0,-1
 535 666 l 1,1,-1
 529 597 l 1,2,-1
 182 597 l 1,3,-1
 182 366 l 1,4,-1
 479 366 l 1,5,-1
 479 302 l 1,6,-1
 182 302 l 1,7,-1
 182 0 l 1,8,-1
 93 0 l 1,9,-1
 93 666 l 1,0,-1
EndSplineSet
EndChar

StartChar: G
Encoding: 71 71 42
Width: 648
GlyphClass: 2
Flags: W
LayerCount: 2
Fore
SplineSet
375 -9 m 0,0,1
 225 -9 225 -9 147.5 84 c 128,-1,2
 70 177 70 177 70 334.5 c 128,-1,3
 70 492 70 492 154 583.5 c 128,-1,4
 238 675 238 675 388 675 c 0,5,6
 462 675 462 675 520.5 650 c 128,-1,7
 579 625 579 625 610 586 c 1,8,-1
 566 538 l 1,9,-1
 558 538 l 1,10,11
 498 605 498 605 388.5 604.5 c 128,-1,12
 279 604 279 604 219.5 532.5 c 128,-1,13
 160 461 160 461 160 337 c 0,14,15
 160 60 160 60 391 60 c 0,16,17
 464 60 464 60 528 79 c 1,18,-1
 528 283 l 1,19,-1
 379 292 l 1,20,-1
 383 352 l 1,21,-1
 608 352 l 1,22,-1
 608 33 l 1,23,24
 501 -9 501 -9 375 -9 c 0,0,1
EndSplineSet
EndChar

StartChar: H
Encoding: 72 72 43
Width: 676
GlyphClass: 2
Flags: W
LayerCount: 2
Fore
SplineSet
521 308 m 5,0,-1
 183 308 l 5,1,-1
 183 0 l 5,2,-1
 95 0 l 5,3,-1
 95 666 l 5,4,-1
 183 666 l 5,5,-1
 183 378 l 5,6,-1
 521 378 l 5,7,-1
 521 666 l 5,8,-1
 610 666 l 5,9,-1
 610 0 l 5,10,-1
 521 0 l 5,11,-1
 521 308 l 5,0,-1
EndSplineSet
EndChar

StartChar: I
Encoding: 73 73 44
Width: 427
GlyphClass: 2
Flags: W
LayerCount: 2
Fore
SplineSet
87 666 m 1,0,-1
 353 666 l 1,1,-1
 353 612 l 1,2,-1
 265 612 l 1,3,-1
 265 54 l 1,4,-1
 353 54 l 1,5,-1
 353 0 l 1,6,-1
 87 0 l 1,7,-1
 87 54 l 1,8,-1
 176 54 l 1,9,-1
 176 612 l 1,10,-1
 87 612 l 1,11,-1
 87 666 l 1,0,-1
EndSplineSet
EndChar

StartChar: J
Encoding: 74 74 45
Width: 350
GlyphClass: 2
Flags: W
LayerCount: 2
Fore
SplineSet
170 666 m 1,0,-1
 258 666 l 1,1,-1
 258 14 l 2,2,3
 258 -79 258 -79 235 -111.5 c 128,-1,4
 212 -144 212 -144 131 -174 c 1,5,-1
 89 -188 l 1,6,-1
 62 -122 l 1,7,-1
 119 -98 l 2,8,9
 154 -83 154 -83 162 -65 c 128,-1,10
 170 -47 170 -47 170 15 c 2,11,-1
 170 666 l 1,0,-1
EndSplineSet
EndChar

StartChar: K
Encoding: 75 75 46
Width: 579
GlyphClass: 2
Flags: W
LayerCount: 2
Fore
SplineSet
592 666 m 1,0,-1
 592 656 l 1,1,-1
 319 383 l 1,2,-1
 608 8 l 1,3,-1
 608 0 l 1,4,-1
 510 0 l 1,5,-1
 254 334 l 1,6,-1
 182 264 l 1,7,-1
 182 0 l 1,8,-1
 93 0 l 1,9,-1
 93 666 l 1,10,-1
 182 666 l 1,11,-1
 182 348 l 1,12,-1
 494 666 l 1,13,-1
 592 666 l 1,0,-1
EndSplineSet
EndChar

StartChar: L
Encoding: 76 76 47
Width: 484
GlyphClass: 2
Flags: W
LayerCount: 2
Fore
SplineSet
93 666 m 1,0,-1
 182 666 l 1,1,-1
 182 67 l 1,2,-1
 503 67 l 1,3,-1
 501 0 l 1,4,-1
 93 0 l 1,5,-1
 93 666 l 1,0,-1
EndSplineSet
EndChar

StartChar: M
Encoding: 77 77 48
Width: 797
GlyphClass: 2
Flags: W
LayerCount: 2
Fore
SplineSet
83 0 m 1,0,-1
 83 222 l 1,1,-1
 95 666 l 1,2,-1
 201 666 l 1,3,-1
 416 181 l 1,4,-1
 632 666 l 1,5,-1
 734 666 l 1,6,-1
 746 222 l 1,7,-1
 746 0 l 1,8,-1
 662 0 l 1,9,-1
 662 220 l 1,10,-1
 659 546 l 1,11,-1
 450 79 l 1,12,-1
 379 79 l 1,13,-1
 172 549 l 1,14,-1
 167 219 l 1,15,-1
 167 0 l 1,16,-1
 83 0 l 1,0,-1
EndSplineSet
EndChar

StartChar: N
Encoding: 78 78 49
Width: 669
GlyphClass: 2
Flags: W
LayerCount: 2
Fore
SplineSet
524 666 m 1,0,-1
 603 666 l 1,1,-1
 603 0 l 1,2,-1
 511 0 l 1,3,-1
 166 546 l 1,4,-1
 174 338 l 1,5,-1
 174 0 l 1,6,-1
 93 0 l 1,7,-1
 93 666 l 1,8,-1
 182 666 l 1,9,-1
 528 114 l 1,10,-1
 524 305 l 1,11,-1
 524 666 l 1,0,-1
EndSplineSet
EndChar

StartChar: O
Encoding: 79 79 50
Width: 711
GlyphClass: 2
Flags: W
LayerCount: 2
Fore
SplineSet
579 332 m 128,-1,1
 579 604 579 604 370.5 604 c 128,-1,2
 162 604 162 604 162 332 c 128,-1,3
 162 60 162 60 370.5 60 c 128,-1,0
 579 60 579 60 579 332 c 128,-1,1
147 584 m 128,-1,5
 223 675 223 675 369.5 675 c 128,-1,6
 516 675 516 675 593 583 c 128,-1,7
 670 491 670 491 670 331.5 c 128,-1,8
 670 172 670 172 594.5 81.5 c 128,-1,9
 519 -9 519 -9 370.5 -9 c 128,-1,10
 222 -9 222 -9 146.5 80.5 c 128,-1,11
 71 170 71 170 71 331.5 c 128,-1,4
 71 493 71 493 147 584 c 128,-1,5
EndSplineSet
Substitution2: "Single Substitution lookup 4 subtable" ordmasculine
EndChar

StartChar: P
Encoding: 80 80 51
Width: 574
GlyphClass: 2
Flags: W
LayerCount: 2
Fore
SplineSet
93 655 m 1,0,1
 215 669 215 669 285 669 c 0,2,3
 432 669 432 669 493 624.5 c 128,-1,4
 554 580 554 580 554 484.5 c 128,-1,5
 554 389 554 389 495 337.5 c 128,-1,6
 436 286 436 286 279 286 c 0,7,8
 242 286 242 286 182 291 c 1,9,-1
 182 0 l 1,10,-1
 93 0 l 1,11,-1
 93 655 l 1,0,1
182 354 m 1,12,13
 232 350 232 350 295 349.5 c 128,-1,14
 358 349 358 349 401.5 366.5 c 128,-1,15
 445 384 445 384 458.5 411 c 128,-1,16
 472 438 472 438 472 492.5 c 128,-1,17
 472 547 472 547 434.5 576 c 128,-1,18
 397 605 397 605 291 605 c 0,19,20
 234 605 234 605 182 600 c 1,21,-1
 182 354 l 1,12,13
EndSplineSet
EndChar

StartChar: Q
Encoding: 81 81 52
Width: 701
GlyphClass: 2
Flags: W
LayerCount: 2
Fore
SplineSet
376 18 m 1,0,1
 452 30 l 1,2,3
 453 29 453 29 518.5 -63.5 c 128,-1,4
 584 -156 584 -156 590 -160 c 1,5,-1
 532 -202 l 1,6,7
 528 -198 528 -198 452.5 -91.5 c 128,-1,8
 377 15 377 15 376 18 c 1,0,1
579 332 m 128,-1,10
 579 604 579 604 370.5 604 c 128,-1,11
 162 604 162 604 162 332 c 128,-1,12
 162 60 162 60 370.5 60 c 128,-1,9
 579 60 579 60 579 332 c 128,-1,10
147 584 m 128,-1,14
 223 675 223 675 369.5 675 c 128,-1,15
 516 675 516 675 593 583 c 128,-1,16
 670 491 670 491 670 331.5 c 128,-1,17
 670 172 670 172 594.5 81.5 c 128,-1,18
 519 -9 519 -9 370.5 -9 c 128,-1,19
 222 -9 222 -9 146.5 80.5 c 128,-1,20
 71 170 71 170 71 331.5 c 128,-1,13
 71 493 71 493 147 584 c 128,-1,14
EndSplineSet
EndChar

StartChar: R
Encoding: 82 82 53
Width: 594
GlyphClass: 2
Flags: W
LayerCount: 2
Fore
SplineSet
567 490 m 0,0,1
 567 350 567 350 425 313 c 1,2,-1
 584 9 l 1,3,-1
 584 0 l 1,4,-1
 490 0 l 1,5,-1
 336 304 l 1,6,-1
 183 303 l 1,7,-1
 183 0 l 1,8,-1
 95 0 l 1,9,-1
 95 655 l 1,10,11
 223 670 223 670 304 670 c 0,12,13
 446 670 446 670 506.5 628 c 128,-1,14
 567 586 567 586 567 490 c 0,0,1
304 605 m 0,15,16
 242 605 242 605 183 600 c 1,17,-1
 183 364 l 1,18,-1
 300 364 l 2,19,20
 409 364 409 364 447.5 391.5 c 128,-1,21
 486 419 486 419 486 485 c 128,-1,22
 486 551 486 551 448.5 578 c 128,-1,23
 411 605 411 605 304 605 c 0,15,16
EndSplineSet
EndChar

StartChar: S
Encoding: 83 83 54
Width: 536
GlyphClass: 2
Flags: W
LayerCount: 2
Fore
SplineSet
394.5 242 m 128,-1,1
 370 264 370 264 292 296 c 2,2,-1
 199 335 l 2,3,4
 120 367 120 367 86.5 399 c 128,-1,5
 53 431 53 431 53 495 c 0,6,7
 53 675 53 675 284 675 c 0,8,9
 419 675 419 675 494 589 c 1,10,-1
 446 542 l 1,11,-1
 440 542 l 1,12,13
 387 604 387 604 280 604 c 0,14,15
 143 604 143 604 142 505 c 0,16,17
 142 468 142 468 161.5 450 c 128,-1,18
 181 432 181 432 238 408 c 2,19,-1
 332 370 l 2,20,21
 425 334 425 334 464 295 c 128,-1,22
 503 256 503 256 503 182.5 c 128,-1,23
 503 109 503 109 468 66 c 128,-1,24
 433 23 433 23 383.5 7 c 128,-1,25
 334 -9 334 -9 266.5 -9 c 128,-1,26
 199 -9 199 -9 140.5 16 c 128,-1,27
 82 41 82 41 52 78 c 1,28,-1
 100 126 l 1,29,-1
 106 126 l 1,30,31
 174 60 174 60 274 60 c 0,32,33
 341 60 341 60 380 88 c 128,-1,34
 419 116 419 116 419 168 c 128,-1,0
 419 220 419 220 394.5 242 c 128,-1,1
EndSplineSet
EndChar

StartChar: T
Encoding: 84 84 55
Width: 504
GlyphClass: 2
Flags: W
LayerCount: 2
Fore
SplineSet
3 666 m 1,0,-1
 522 666 l 1,1,-1
 522 599 l 1,2,-1
 307 599 l 1,3,-1
 307 0 l 1,4,-1
 217 0 l 1,5,-1
 217 599 l 1,6,-1
 3 599 l 1,7,-1
 3 666 l 1,0,-1
EndSplineSet
EndChar

StartChar: U
Encoding: 85 85 56
Width: 639
GlyphClass: 2
Flags: W
LayerCount: 2
Fore
SplineSet
496 666 m 1,0,-1
 584 666 l 1,1,-1
 584 246 l 2,2,3
 584 128 584 128 521.5 59.5 c 128,-1,4
 459 -9 459 -9 331 -9 c 128,-1,5
 203 -9 203 -9 140.5 59.5 c 128,-1,6
 78 128 78 128 78 248 c 2,7,-1
 78 666 l 1,8,-1
 166 666 l 1,9,-1
 166 250 l 2,10,11
 166 154 166 154 205 107.5 c 128,-1,12
 244 61 244 61 330.5 61 c 128,-1,13
 417 61 417 61 456.5 108 c 128,-1,14
 496 155 496 155 496 250 c 2,15,-1
 496 666 l 1,0,-1
EndSplineSet
EndChar

StartChar: V
Encoding: 86 86 57
Width: 633
GlyphClass: 2
Flags: W
LayerCount: 2
Fore
SplineSet
285 0 m 1,0,-1
 35 666 l 1,1,-1
 126 666 l 1,2,3
 296 195 296 195 327 101 c 1,4,5
 351 171 351 171 528 666 c 1,6,-1
 624 666 l 1,7,-1
 367 0 l 1,8,-1
 285 0 l 1,0,-1
EndSplineSet
EndChar

StartChar: W
Encoding: 87 87 58
Width: 869
GlyphClass: 2
Flags: W
LayerCount: 2
Fore
SplineSet
457 545 m 1,0,-1
 295 0 l 1,1,-1
 212 0 l 1,2,-1
 35 666 l 1,3,-1
 115 666 l 1,4,-1
 258 118 l 1,5,-1
 415 652 l 1,6,-1
 498 652 l 1,7,-1
 652 112 l 1,8,-1
 783 666 l 1,9,-1
 869 666 l 1,10,-1
 697 0 l 1,11,-1
 612 0 l 1,12,-1
 457 545 l 1,0,-1
EndSplineSet
EndChar

StartChar: X
Encoding: 88 88 59
Width: 567
GlyphClass: 2
Flags: W
LayerCount: 2
Fore
SplineSet
342 333 m 1,0,-1
 566 0 l 1,1,-1
 465 0 l 1,2,-1
 289 266 l 1,3,-1
 112 0 l 1,4,-1
 21 0 l 1,5,-1
 241 337 l 1,6,-1
 23 666 l 1,7,-1
 122 666 l 1,8,-1
 296 404 l 1,9,-1
 466 666 l 1,10,-1
 562 666 l 1,11,-1
 342 333 l 1,0,-1
EndSplineSet
EndChar

StartChar: Y
Encoding: 89 89 60
Width: 599
GlyphClass: 2
Flags: W
LayerCount: 2
Fore
SplineSet
357 235 m 1,0,-1
 357 0 l 1,1,-1
 268 0 l 1,2,-1
 268 236 l 1,3,-1
 34 666 l 1,4,-1
 119 666 l 1,5,-1
 312 313 l 1,6,-1
 500 666 l 1,7,-1
 589 666 l 1,8,-1
 357 235 l 1,0,-1
EndSplineSet
EndChar

StartChar: Z
Encoding: 90 90 61
Width: 522
GlyphClass: 2
Flags: W
LayerCount: 2
Fore
SplineSet
42 0 m 1,0,-1
 42 60 l 1,1,-1
 414 599 l 1,2,-1
 57 599 l 1,3,-1
 56 666 l 1,4,-1
 510 666 l 1,5,-1
 513 604 l 1,6,-1
 144 67 l 1,7,-1
 517 67 l 1,8,-1
 514 0 l 1,9,-1
 42 0 l 1,0,-1
EndSplineSet
EndChar

StartChar: bracketleft
Encoding: 91 91 62
Width: 360
GlyphClass: 2
Flags: W
LayerCount: 2
Fore
SplineSet
99 -116 m 1,0,-1
 99 675 l 1,1,-1
 311 675 l 1,2,-1
 311 616 l 1,3,-1
 183 616 l 1,4,-1
 183 -58 l 1,5,-1
 311 -58 l 1,6,-1
 311 -116 l 1,7,-1
 99 -116 l 1,0,-1
EndSplineSet
EndChar

StartChar: backslash
Encoding: 92 92 63
Width: 411
GlyphClass: 2
Flags: W
LayerCount: 2
Fore
SplineSet
290 -7 m 1,0,-1
 44 676 l 1,1,-1
 109 676 l 1,2,-1
 355 -7 l 1,3,-1
 290 -7 l 1,0,-1
EndSplineSet
EndChar

StartChar: bracketright
Encoding: 93 93 64
Width: 423
GlyphClass: 2
Flags: W
LayerCount: 2
Fore
SplineSet
132 -116 m 1,0,-1
 132 -58 l 1,1,-1
 259 -58 l 1,2,-1
 259 616 l 1,3,-1
 132 616 l 1,4,-1
 132 675 l 1,5,-1
 342 675 l 1,6,-1
 342 -116 l 1,7,-1
 132 -116 l 1,0,-1
EndSplineSet
EndChar

StartChar: asciicircum
Encoding: 94 94 65
Width: 568
GlyphClass: 2
Flags: W
LayerCount: 2
Fore
SplineSet
277 666 m 1,0,-1
 314 666 l 1,1,-1
 550 135 l 1,2,-1
 468 135 l 1,3,-1
 295 535 l 1,4,-1
 124 135 l 1,5,-1
 42 135 l 1,6,-1
 277 666 l 1,0,-1
EndSplineSet
EndChar

StartChar: underscore
Encoding: 95 95 66
Width: 397
GlyphClass: 2
Flags: W
LayerCount: 2
Fore
SplineSet
0 -120 m 1,0,-1
 0 -60 l 1,1,-1
 414 -60 l 1,2,-1
 414 -120 l 1,3,-1
 0 -120 l 1,0,-1
EndSplineSet
EndChar

StartChar: grave
Encoding: 96 96 67
Width: 407
GlyphClass: 4
Flags: W
LayerCount: 2
Fore
SplineSet
185 552 m 1,0,-1
 44 725 l 1,1,-1
 151 725 l 1,2,-1
 239 552 l 1,3,-1
 185 552 l 1,0,-1
EndSplineSet
EndChar

StartChar: a
Encoding: 97 97 68
Width: 491
GlyphClass: 2
Flags: W
LayerCount: 2
Fore
SplineSet
224 50 m 0,0,1
 307 50 307 50 360 116 c 1,2,-1
 360 219 l 1,3,-1
 264 220 l 2,4,5
 191 220 191 220 161 199.5 c 128,-1,6
 131 179 131 179 131 134 c 0,7,8
 131 50 131 50 224 50 c 0,0,1
52 135 m 0,9,10
 52 273 52 273 249 274 c 2,11,-1
 254 274 l 1,12,-1
 360 272 l 1,13,-1
 360 330 l 2,14,15
 360 443 360 443 252 443 c 0,16,17
 162 443 162 443 94 396 c 1,18,-1
 70 459 l 1,19,20
 143 506 143 506 254 505 c 0,21,22
 443 505 443 505 443 322 c 2,23,-1
 443 0 l 1,24,-1
 373 0 l 1,25,-1
 368 60 l 1,26,27
 309 -10 309 -10 211 -9 c 0,28,29
 138 -9 138 -9 95 27.5 c 128,-1,30
 52 64 52 64 52 135 c 0,9,10
EndSplineSet
Substitution2: "Single Substitution lookup 3 subtable" ordfeminine
EndChar

StartChar: b
Encoding: 98 98 69
Width: 535
GlyphClass: 2
Flags: W
LayerCount: 2
Fore
SplineSet
288 52 m 0,0,1
 418 52 418 52 418 248 c 128,-1,2
 418 444 418 444 296 444 c 0,3,4
 225 444 225 444 190.5 394.5 c 128,-1,5
 156 345 156 345 156 256 c 2,6,-1
 156 114 l 1,7,8
 201 52 201 52 288 52 c 0,0,1
309 505 m 0,9,10
 407 505 407 505 455 435 c 128,-1,11
 503 365 503 365 503 247.5 c 128,-1,12
 503 130 503 130 448 60.5 c 128,-1,13
 393 -9 393 -9 297.5 -9 c 128,-1,14
 202 -9 202 -9 150 52 c 1,15,-1
 145 0 l 1,16,-1
 77 0 l 1,17,-1
 77 704 l 1,18,-1
 160 713 l 1,19,-1
 160 508 l 1,20,-1
 156 404 l 1,21,22
 198 505 198 505 309 505 c 0,9,10
EndSplineSet
EndChar

StartChar: c
Encoding: 99 99 70
Width: 478
GlyphClass: 2
Flags: W
LayerCount: 2
Fore
SplineSet
398 125 m 1,0,1
 406 125 l 1,2,-1
 457 97 l 1,3,4
 413 -9 413 -9 279 -9 c 0,5,6
 176 -9 176 -9 115 60.5 c 128,-1,7
 54 130 54 130 54 247.5 c 128,-1,8
 54 365 54 365 115 435 c 128,-1,9
 176 505 176 505 279 505 c 0,10,11
 412 505 412 505 457 400 c 1,12,-1
 406 370 l 1,13,-1
 399 370 l 1,14,15
 359 443 359 443 286 443 c 128,-1,16
 213 443 213 443 176 392 c 128,-1,17
 139 341 139 341 139 248 c 128,-1,18
 139 155 139 155 175.5 104 c 128,-1,19
 212 53 212 53 282 53 c 2,20,-1
 283 53 l 2,21,22
 358 53 358 53 398 125 c 1,0,1
EndSplineSet
EndChar

StartChar: d
Encoding: 100 100 71
Width: 540
GlyphClass: 2
Flags: W
LayerCount: 2
Fore
SplineSet
276 52 m 0,0,1
 357 52 357 52 400 105 c 1,2,-1
 400 387 l 1,3,4
 362 444 362 444 276 444 c 0,5,6
 209 444 209 444 174 393 c 128,-1,7
 139 342 139 342 139 250 c 0,8,9
 140 52 140 52 276 52 c 0,0,1
274 504 m 2,10,11
 353 504 353 504 400 453 c 1,12,-1
 397 527 l 1,13,-1
 397 704 l 1,14,-1
 484 713 l 1,15,-1
 484 0 l 1,16,-1
 412 0 l 1,17,-1
 408 54 l 1,18,19
 353 -9 353 -9 258.5 -9 c 128,-1,20
 164 -9 164 -9 109 61 c 128,-1,21
 54 131 54 131 54 248 c 128,-1,22
 54 365 54 365 110.5 434.5 c 128,-1,23
 167 504 167 504 266 504 c 2,24,-1
 274 504 l 2,10,11
EndSplineSet
EndChar

StartChar: e
Encoding: 101 101 72
Width: 502
GlyphClass: 2
Flags: W
LayerCount: 2
Fore
SplineSet
141 286 m 1,0,1
 404 286 l 1,2,3
 402 444 402 444 285 444 c 0,4,5
 226 444 226 444 186.5 401.5 c 128,-1,6
 147 359 147 359 141 286 c 1,0,1
470 233 m 1,7,-1
 139 233 l 1,8,9
 144 141 144 141 188 96.5 c 128,-1,10
 232 52 232 52 303 52 c 0,11,12
 330 52 330 52 359 60 c 128,-1,13
 388 68 388 68 435 95 c 1,14,-1
 442 95 l 1,15,-1
 461 40 l 1,16,17
 390 -9 390 -9 289.5 -9 c 128,-1,18
 189 -9 189 -9 122 60.5 c 128,-1,19
 55 130 55 130 55 248 c 128,-1,20
 55 366 55 366 120 435.5 c 128,-1,21
 185 505 185 505 278.5 505 c 128,-1,22
 372 505 372 505 423 446 c 128,-1,23
 474 387 474 387 474 284 c 0,24,25
 474 272 474 272 471 243 c 2,26,-1
 470 233 l 1,7,-1
EndSplineSet
EndChar

StartChar: f
Encoding: 102 102 73
Width: 333
GlyphClass: 2
Flags: W
LayerCount: 2
Fore
SplineSet
334 685 m 1,0,1
 329 629 l 1,2,-1
 310 630 l 2,3,4
 290 632 290 632 281 632 c 0,5,6
 232 632 232 632 216.5 612 c 128,-1,7
 201 592 201 592 201 530 c 2,8,-1
 201 494 l 1,9,-1
 326 494 l 1,10,-1
 326 444 l 1,11,-1
 201 444 l 1,12,-1
 201 0 l 1,13,-1
 116 0 l 1,14,-1
 116 444 l 1,15,-1
 31 444 l 1,16,-1
 33 487 l 1,17,-1
 116 493 l 1,18,-1
 116 530 l 2,19,20
 116 626 116 626 150.5 660 c 128,-1,21
 185 694 185 694 258 694 c 2,22,-1
 265 694 l 2,23,24
 309 693 309 693 334 685 c 1,0,1
EndSplineSet
EndChar

StartChar: g
Encoding: 103 103 74
Width: 529
GlyphClass: 2
Flags: W
LayerCount: 2
Fore
SplineSet
274 52 m 0,0,1
 358 52 358 52 397 106 c 1,2,-1
 397 382 l 1,3,4
 351 444 351 444 278.5 444 c 128,-1,5
 206 444 206 444 171 392.5 c 128,-1,6
 136 341 136 341 136 250 c 0,7,8
 137 52 137 52 274 52 c 0,0,1
108.5 61 m 128,-1,10
 52 130 52 130 52 248.5 c 128,-1,11
 52 367 52 367 110 436 c 128,-1,12
 168 505 168 505 261.5 505 c 128,-1,13
 355 505 355 505 404 445 c 1,14,-1
 408 494 l 1,15,-1
 478 494 l 1,16,-1
 478 23 l 2,17,18
 478 -104 478 -104 426 -163.5 c 128,-1,19
 374 -223 374 -223 256 -223 c 0,20,21
 176 -223 176 -223 105 -197 c 1,22,-1
 112 -132 l 1,23,-1
 123 -132 l 1,24,25
 184 -157 184 -157 256 -157 c 128,-1,26
 328 -157 328 -157 363.5 -121 c 128,-1,27
 399 -85 399 -85 399 2 c 2,28,-1
 399 42 l 1,29,30
 352 -8 352 -8 258.5 -8 c 128,-1,9
 165 -8 165 -8 108.5 61 c 128,-1,10
EndSplineSet
EndChar

StartChar: h
Encoding: 104 104 75
Width: 533
GlyphClass: 2
Flags: W
LayerCount: 2
Fore
SplineSet
77 0 m 1,0,-1
 77 704 l 1,1,-1
 159 713 l 1,2,-1
 159 524 l 1,3,-1
 156 402 l 1,4,5
 200 505 200 505 320 505 c 0,6,7
 400 505 400 505 442.5 453 c 128,-1,8
 485 401 485 401 485 306 c 2,9,-1
 485 0 l 1,10,-1
 400 0 l 1,11,-1
 400 303 l 2,12,13
 400 376 400 376 378 410 c 128,-1,14
 356 444 356 444 304 444 c 0,15,16
 228 444 228 444 193.5 395 c 128,-1,17
 159 346 159 346 159 272 c 2,18,-1
 159 0 l 1,19,-1
 77 0 l 1,0,-1
EndSplineSet
EndChar

StartChar: i
Encoding: 105 105 76
Width: 261
GlyphClass: 2
Flags: W
LayerCount: 2
Fore
SplineSet
187 610.5 m 128,-1,1
 171 595 171 595 142.5 595 c 128,-1,2
 114 595 114 595 98 610.5 c 128,-1,3
 82 626 82 626 82 653.5 c 128,-1,4
 82 681 82 681 97.5 696 c 128,-1,5
 113 711 113 711 142.5 711 c 128,-1,6
 172 711 172 711 187.5 696 c 128,-1,7
 203 681 203 681 203 653.5 c 128,-1,0
 203 626 203 626 187 610.5 c 128,-1,1
100 494 m 1,8,-1
 183 494 l 1,9,-1
 183 0 l 1,10,-1
 100 0 l 1,11,-1
 100 494 l 1,8,-1
EndSplineSet
EndChar

StartChar: j
Encoding: 106 106 77
Width: 257
GlyphClass: 2
Flags: W
LayerCount: 2
Fore
SplineSet
190.5 610.5 m 128,-1,1
 175 595 175 595 145.5 595 c 128,-1,2
 116 595 116 595 100.5 610.5 c 128,-1,3
 85 626 85 626 85 653.5 c 128,-1,4
 85 681 85 681 100.5 696 c 128,-1,5
 116 711 116 711 145.5 711 c 128,-1,6
 175 711 175 711 190.5 696 c 128,-1,7
 206 681 206 681 206 653.5 c 128,-1,0
 206 626 206 626 190.5 610.5 c 128,-1,1
109 494 m 1,8,-1
 192 494 l 1,9,-1
 192 -5 l 2,10,11
 192 -92 192 -92 161 -127.5 c 128,-1,12
 130 -163 130 -163 51 -176 c 1,13,-1
 22 -181 l 1,14,-1
 8 -116 l 1,15,-1
 38 -108 l 1,16,17
 88 -97 88 -97 98.5 -78 c 128,-1,18
 109 -59 109 -59 109 8 c 2,19,-1
 109 494 l 1,8,-1
EndSplineSet
EndChar

StartChar: k
Encoding: 107 107 78
Width: 482
GlyphClass: 2
Flags: W
LayerCount: 2
Fore
SplineSet
77 0 m 1,0,-1
 77 704 l 1,1,-1
 159 713 l 1,2,-1
 159 350 l 1,3,-1
 156 253 l 1,4,-1
 383 494 l 1,5,-1
 476 494 l 1,6,-1
 476 484 l 1,7,-1
 274 270 l 1,8,-1
 491 11 l 1,9,-1
 491 0 l 1,10,-1
 402 0 l 1,11,-1
 214 230 l 1,12,-1
 159 183 l 1,13,-1
 159 0 l 1,14,-1
 77 0 l 1,0,-1
EndSplineSet
EndChar

StartChar: l
Encoding: 108 108 79
Width: 281
GlyphClass: 2
Flags: W
LayerCount: 2
Fore
SplineSet
216 -4 m 2,0,1
 144 -4 144 -4 112.5 26 c 128,-1,2
 81 56 81 56 81 141 c 2,3,-1
 81 704 l 1,4,-1
 164 713 l 1,5,-1
 164 142 l 2,6,7
 164 88 164 88 175 74.5 c 128,-1,8
 186 61 186 61 229 58 c 1,9,-1
 258 57 l 1,10,-1
 251 -4 l 1,11,-1
 216 -4 l 2,0,1
EndSplineSet
EndChar

StartChar: m
Encoding: 109 109 80
Width: 806
GlyphClass: 2
Flags: W
LayerCount: 2
Fore
SplineSet
464 272 m 2,0,1
 464 0 l 1,2,-1
 381 0 l 1,3,-1
 381 279 l 2,4,5
 381 365 381 365 359 404.5 c 128,-1,6
 337 444 337 444 285 444 c 128,-1,7
 233 444 233 444 200 402.5 c 128,-1,8
 167 361 167 361 158 292 c 1,9,-1
 158 0 l 1,10,-1
 75 0 l 1,11,-1
 75 494 l 1,12,-1
 145 494 l 1,13,-1
 154 397 l 1,14,15
 199 505 199 505 304 505 c 0,16,17
 360 505 360 505 397 474.5 c 128,-1,18
 434 444 434 444 448 389 c 1,19,20
 497 505 497 505 612 505 c 0,21,22
 688 505 688 505 729 457 c 128,-1,23
 770 409 770 409 770 318 c 2,24,-1
 770 0 l 1,25,-1
 686 0 l 1,26,-1
 686 294 l 2,27,28
 686 444 686 444 595 444 c 0,29,30
 545 444 545 444 504.5 396.5 c 128,-1,31
 464 349 464 349 464 272 c 2,0,1
EndSplineSet
EndChar

StartChar: n
Encoding: 110 110 81
Width: 530
GlyphClass: 2
Flags: W
LayerCount: 2
Fore
SplineSet
75 0 m 1,0,-1
 75 494 l 1,1,-1
 145 494 l 1,2,-1
 153 397 l 1,3,4
 198 505 198 505 319 505 c 0,5,6
 482 505 482 505 483 297 c 2,7,-1
 483 0 l 1,8,-1
 398 0 l 1,9,-1
 398 304 l 2,10,11
 398 372 398 372 377 408 c 128,-1,12
 356 444 356 444 303 444 c 0,13,14
 230 444 230 444 194 398 c 128,-1,15
 158 352 158 352 158 280 c 2,16,-1
 158 0 l 1,17,-1
 75 0 l 1,0,-1
EndSplineSet
EndChar

StartChar: o
Encoding: 111 111 82
Width: 533
GlyphClass: 2
Flags: W
LayerCount: 2
Fore
SplineSet
278 -9 m 256,0,1
 172 -9 172 -9 113 60.5 c 128,-1,2
 54 130 54 130 54 248.5 c 128,-1,3
 54 367 54 367 112.5 436 c 128,-1,4
 171 505 171 505 278 505 c 128,-1,5
 385 505 385 505 443 436 c 128,-1,6
 501 367 501 367 501 248.5 c 128,-1,7
 501 130 501 130 442.5 60.5 c 128,-1,8
 384 -9 384 -9 278 -9 c 256,0,1
278 52 m 256,9,10
 348 52 348 52 382 105 c 128,-1,11
 416 158 416 158 416 248 c 128,-1,12
 416 338 416 338 381.5 391 c 128,-1,13
 347 444 347 444 277.5 444 c 128,-1,14
 208 444 208 444 173.5 391 c 128,-1,15
 139 338 139 338 139 248 c 128,-1,16
 139 158 139 158 173.5 105 c 128,-1,17
 208 52 208 52 278 52 c 256,9,10
EndSplineSet
Substitution2: "Single Substitution lookup 4 subtable" ordmasculine
EndChar

StartChar: p
Encoding: 112 112 83
Width: 536
GlyphClass: 2
Flags: W
LayerCount: 2
Fore
SplineSet
288 52 m 0,0,1
 419 52 419 52 419 248 c 128,-1,2
 419 444 419 444 296 444 c 0,3,4
 159 444 159 444 157 263 c 1,5,-1
 157 114 l 1,6,7
 202 52 202 52 288 52 c 0,0,1
78 -210 m 1,8,-1
 78 494 l 1,9,-1
 147 494 l 1,10,-1
 155 392 l 1,11,12
 191 505 191 505 309 505 c 0,13,14
 407 505 407 505 455.5 436 c 128,-1,15
 504 367 504 367 504 250 c 128,-1,16
 504 133 504 133 448 62 c 128,-1,17
 392 -9 392 -9 300 -9 c 128,-1,18
 208 -9 208 -9 158 41 c 1,19,-1
 160 -31 l 1,20,-1
 160 -210 l 1,21,-1
 78 -210 l 1,8,-1
EndSplineSet
EndChar

StartChar: q
Encoding: 113 113 84
Width: 533
GlyphClass: 2
Flags: W
LayerCount: 2
Fore
SplineSet
276 52 m 0,0,1
 360 52 360 52 400 107 c 1,2,-1
 400 381 l 1,3,4
 354 444 354 444 281 444 c 128,-1,5
 208 444 208 444 173.5 392.5 c 128,-1,6
 139 341 139 341 139 249 c 0,7,8
 140 52 140 52 276 52 c 0,0,1
268 -9 m 0,9,10
 165 -9 165 -9 109.5 61 c 128,-1,11
 54 131 54 131 54 248 c 128,-1,12
 54 365 54 365 112 435 c 128,-1,13
 170 505 170 505 264.5 505 c 128,-1,14
 359 505 359 505 408 440 c 1,15,-1
 411 494 l 1,16,-1
 482 494 l 1,17,-1
 482 -210 l 1,18,-1
 397 -210 l 1,19,-1
 397 -10 l 1,20,-1
 399 41 l 1,21,22
 350 -9 350 -9 268 -9 c 0,9,10
EndSplineSet
EndChar

StartChar: r
Encoding: 114 114 85
Width: 343
GlyphClass: 2
Flags: W
LayerCount: 2
Fore
SplineSet
79 0 m 1,0,-1
 79 494 l 1,1,-1
 146 494 l 1,2,-1
 154 391 l 1,3,4
 199 501 199 501 296 501 c 0,5,6
 314 501 314 501 333 498 c 1,7,8
 327 433 l 1,9,-1
 308 433 l 2,10,11
 237 433 237 433 199 390 c 128,-1,12
 161 347 161 347 161 281 c 2,13,-1
 161 0 l 1,14,-1
 79 0 l 1,0,-1
EndSplineSet
EndChar

StartChar: s
Encoding: 115 115 86
Width: 431
GlyphClass: 2
Flags: W
LayerCount: 2
Fore
SplineSet
331 140 m 0,0,1
 331 167 331 167 314 184.5 c 128,-1,2
 297 202 297 202 244 217 c 1,3,-1
 188 235 l 2,4,5
 105 261 105 261 79 291.5 c 128,-1,6
 53 322 53 322 53 378 c 128,-1,7
 53 434 53 434 101 469.5 c 128,-1,8
 149 505 149 505 232 505 c 0,9,10
 347 505 347 505 397 434 c 1,11,-1
 352 396 l 1,12,-1
 347 396 l 1,13,14
 307 443 307 443 233 443 c 0,15,16
 135 443 135 443 135 371 c 0,17,18
 135 345 135 345 150.5 330.5 c 128,-1,19
 166 316 166 316 215 301 c 2,20,-1
 270 284 l 1,21,22
 351 257 351 257 379 224 c 128,-1,23
 407 191 407 191 407 144 c 0,24,25
 407 67 407 67 358 29 c 128,-1,26
 309 -9 309 -9 231 -9 c 0,27,28
 101 -9 101 -9 40 70 c 1,29,-1
 82 111 l 1,30,-1
 89 111 l 1,31,32
 140 52 140 52 231 52 c 0,33,34
 331 52 331 52 331 140 c 0,0,1
EndSplineSet
EndChar

StartChar: t
Encoding: 116 116 87
Width: 351
GlyphClass: 2
Flags: W
LayerCount: 2
Fore
SplineSet
267 -4 m 2,0,1
 166 -4 166 -4 136 28 c 128,-1,2
 106 60 106 60 106 153 c 2,3,-1
 106 444 l 1,4,-1
 27 444 l 1,5,-1
 30 490 l 1,6,-1
 108 494 l 1,7,-1
 120 628 l 1,8,-1
 189 632 l 1,9,-1
 189 494 l 1,10,-1
 320 494 l 1,11,-1
 320 444 l 1,12,-1
 189 444 l 1,13,-1
 189 153 l 2,14,15
 189 93 189 93 201 76 c 128,-1,16
 213 59 213 59 267 57 c 2,17,-1
 317 55 l 1,18,-1
 314 -4 l 1,19,-1
 267 -4 l 2,0,1
EndSplineSet
EndChar

StartChar: u
Encoding: 117 117 88
Width: 532
GlyphClass: 2
Flags: W
LayerCount: 2
Fore
SplineSet
396 118 m 1,0,1
 396 494 l 1,2,-1
 478 494 l 1,3,-1
 478 0 l 1,4,-1
 408 0 l 1,5,-1
 402 61 l 1,6,7
 346 -10 346 -10 248 -9 c 0,8,9
 71 -9 71 -9 71 184 c 2,10,-1
 71 494 l 1,11,-1
 154 494 l 1,12,-1
 154 186 l 2,13,14
 154 119 154 119 178.5 85.5 c 128,-1,15
 203 52 203 52 259 52 c 0,16,17
 345 52 345 52 396 118 c 1,0,1
EndSplineSet
EndChar

StartChar: v
Encoding: 118 118 89
Width: 474
GlyphClass: 2
Flags: W
LayerCount: 2
Fore
SplineSet
207 0 m 1,0,-1
 28 494 l 1,1,-1
 113 494 l 1,2,3
 181 294 181 294 251 98 c 1,4,5
 266 143 266 143 313 280.5 c 128,-1,6
 360 418 360 418 385 494 c 1,7,-1
 468 494 l 1,8,-1
 292 0 l 1,9,-1
 207 0 l 1,0,-1
EndSplineSet
EndChar

StartChar: w
Encoding: 119 119 90
Width: 662
GlyphClass: 2
Flags: W
LayerCount: 2
Fore
SplineSet
347 415 m 1,0,-1
 220 0 l 1,1,-1
 146 0 l 1,2,-1
 11 494 l 1,3,-1
 89 494 l 1,4,-1
 188 108 l 1,5,-1
 303 494 l 1,6,-1
 389 494 l 1,7,-1
 510 108 l 1,8,-1
 603 494 l 1,9,-1
 678 494 l 1,10,-1
 549 0 l 1,11,-1
 474 0 l 1,12,-1
 347 415 l 1,0,-1
EndSplineSet
EndChar

StartChar: x
Encoding: 120 120 91
Width: 464
GlyphClass: 2
Flags: W
LayerCount: 2
Fore
SplineSet
289 252 m 1,0,-1
 458 0 l 1,1,-1
 366 0 l 1,2,-1
 237 191 l 1,3,-1
 108 0 l 1,4,-1
 23 0 l 1,5,-1
 198 251 l 1,6,-1
 33 494 l 1,7,-1
 127 494 l 1,8,-1
 249 311 l 1,9,-1
 372 494 l 1,10,-1
 456 494 l 1,11,-1
 289 252 l 1,0,-1
EndSplineSet
EndChar

StartChar: y
Encoding: 121 121 92
Width: 496
GlyphClass: 2
Flags: W
LayerCount: 2
Fore
SplineSet
495 494 m 1,0,-1
 222 -189 l 1,1,-1
 151 -172 l 1,2,-1
 224 20 l 1,3,-1
 18 494 l 1,4,-1
 105 494 l 1,5,-1
 265 111 l 1,6,-1
 415 494 l 1,7,-1
 495 494 l 1,0,-1
EndSplineSet
EndChar

StartChar: z
Encoding: 122 122 93
Width: 444
GlyphClass: 2
Flags: W
LayerCount: 2
Fore
SplineSet
55 494 m 1,0,-1
 407 494 l 1,1,-1
 407 438 l 1,2,-1
 138 61 l 1,3,-1
 408 61 l 1,4,-1
 411 0 l 1,5,-1
 46 0 l 1,6,-1
 46 53 l 1,7,-1
 319 435 l 1,8,-1
 58 435 l 1,9,-1
 55 494 l 1,0,-1
EndSplineSet
EndChar

StartChar: braceleft
Encoding: 123 123 94
Width: 378
GlyphClass: 2
Flags: W
LayerCount: 2
Fore
SplineSet
335 -120 m 1,0,1
 234 -120 234 -120 206.5 -92 c 128,-1,2
 179 -64 179 -64 179 35 c 2,3,-1
 179 155 l 2,4,5
 179 166 179 166 177.5 184.5 c 128,-1,6
 176 203 176 203 172 209 c 128,-1,7
 168 215 168 215 162 225 c 0,8,9
 149 246 149 246 88 246 c 1,10,-1
 88 314 l 1,11,12
 119 314 119 314 146 322 c 0,13,14
 156 325 156 325 162 334.5 c 128,-1,15
 168 344 168 344 173.5 354 c 128,-1,16
 179 364 179 364 179 443 c 2,17,-1
 179 524 l 2,18,19
 179 624 179 624 206.5 651.5 c 128,-1,20
 234 679 234 679 335 679 c 1,21,-1
 335 622 l 1,22,23
 285 622 285 622 273.5 604.5 c 128,-1,24
 262 587 262 587 262 516 c 2,25,-1
 262 406 l 2,26,27
 262 346 262 346 243.5 317.5 c 128,-1,28
 225 289 225 289 173 280 c 1,29,30
 225 271 225 271 243.5 243 c 128,-1,31
 262 215 262 215 262 154 c 2,32,-1
 262 44 l 2,33,34
 262 -27 262 -27 273 -43.5 c 128,-1,35
 284 -60 284 -60 335 -60 c 1,36,-1
 335 -120 l 1,0,1
EndSplineSet
EndChar

StartChar: bar
Encoding: 124 124 95
Width: 300
GlyphClass: 2
Flags: W
LayerCount: 2
Fore
SplineSet
120 675 m 1,0,-1
 189 675 l 1,1,-1
 189 -127 l 1,2,-1
 120 -127 l 1,3,-1
 120 675 l 1,0,-1
EndSplineSet
EndChar

StartChar: braceright
Encoding: 125 125 96
Width: 378
GlyphClass: 2
Flags: W
LayerCount: 2
Fore
SplineSet
58 -120 m 1,0,1
 58 -60 l 1,2,3
 109 -60 109 -60 120 -43.5 c 128,-1,4
 131 -27 131 -27 131 44 c 2,5,-1
 131 154 l 2,6,7
 131 215 131 215 149.5 242.5 c 128,-1,8
 168 270 168 270 220 280 c 1,9,10
 168 289 168 289 149.5 317 c 128,-1,11
 131 345 131 345 131 406 c 2,12,-1
 131 516 l 2,13,14
 131 587 131 587 119.5 604.5 c 128,-1,15
 108 622 108 622 58 622 c 1,16,17
 58 679 l 1,18,19
 159 679 159 679 186.5 651.5 c 128,-1,20
 214 624 214 624 214 524 c 2,21,-1
 214 443 l 2,22,23
 214 362 214 362 228 338 c 128,-1,24
 242 314 242 314 306 314 c 1,25,-1
 306 246 l 1,26,27
 242 246 242 246 228 222 c 128,-1,28
 214 198 214 198 214 116 c 2,29,-1
 214 35 l 2,30,31
 214 -65 214 -65 186.5 -92.5 c 128,-1,32
 159 -120 159 -120 58 -120 c 1,0,1
EndSplineSet
EndChar

StartChar: asciitilde
Encoding: 126 126 97
Width: 523
GlyphClass: 2
Flags: W
LayerCount: 2
Fore
SplineSet
108 275.5 m 128,-1,1
 82 255 82 255 66 224 c 1,2,-1
 45 270 l 1,3,4
 81 359 81 359 164 360 c 0,5,6
 205 360 205 360 281 326.5 c 128,-1,7
 357 293 357 293 381.5 293 c 128,-1,8
 406 293 406 293 431 313.5 c 128,-1,9
 456 334 456 334 471 365 c 1,10,-1
 494 321 l 1,11,12
 456 229 456 229 378 230 c 0,13,14
 346 230 346 230 268 263 c 128,-1,15
 190 296 190 296 162 296 c 128,-1,0
 134 296 134 296 108 275.5 c 128,-1,1
EndSplineSet
EndChar

StartChar: cent
Encoding: 162 162 100
Width: 472
GlyphClass: 2
Flags: W
LayerCount: 2
Fore
SplineSet
246 16 m 1,0,-1
 308 16 l 1,1,-1
 300 -141 l 1,2,-1
 246 -141 l 1,3,-1
 246 16 l 1,0,-1
252 634 m 1,4,-1
 304 634 l 1,5,-1
 303 485 l 1,6,-1
 246 485 l 1,7,-1
 252 634 l 1,4,-1
398 125 m 1,8,9
 358 53 358 53 283 53 c 2,10,-1
 282 53 l 2,11,12
 212 53 212 53 175.5 104 c 128,-1,13
 139 155 139 155 139 248 c 128,-1,14
 139 341 139 341 176 392 c 128,-1,15
 213 443 213 443 286.5 443 c 128,-1,16
 360 443 360 443 399 370 c 1,17,-1
 406 370 l 1,18,-1
 457 400 l 1,19,20
 412 505 412 505 279 505 c 0,21,22
 176 505 176 505 115 435 c 128,-1,23
 54 365 54 365 54 247.5 c 128,-1,24
 54 130 54 130 115 60.5 c 128,-1,25
 176 -9 176 -9 279 -9 c 0,26,27
 413 -9 413 -9 457 97 c 1,28,-1
 406 125 l 1,29,-1
 398 125 l 1,8,9
EndSplineSet
EndChar

StartChar: sterling
Encoding: 163 163 101
Width: 502
GlyphClass: 2
Flags: W
LayerCount: 2
Fore
SplineSet
201 437 m 2,0,1
 201 370 l 1,2,-1
 372 370 l 1,3,-1
 372 312 l 1,4,-1
 201 312 l 1,5,-1
 201 67 l 1,6,-1
 469 67 l 1,7,-1
 464 0 l 1,8,-1
 40 0 l 1,9,-1
 33 57 l 1,10,-1
 112 66 l 1,11,-1
 112 312 l 1,12,-1
 33 312 l 1,13,-1
 33 370 l 1,14,-1
 112 370 l 1,15,-1
 112 437 l 2,16,17
 112 678 112 678 305 678 c 0,18,19
 400 678 400 678 465 615 c 1,20,-1
 435 560 l 1,21,-1
 426 560 l 1,22,23
 405 577 405 577 394 584 c 0,24,25
 360 606 360 606 315 606 c 0,26,27
 201 607 201 607 201 437 c 2,0,1
EndSplineSet
EndChar

StartChar: currency
Encoding: 164 164 102
Width: 508
GlyphClass: 2
Flags: W
LayerCount: 2
Fore
SplineSet
400 330 m 256,0,1
 400 390 400 390 361.5 432 c 128,-1,2
 323 474 323 474 263 474 c 128,-1,3
 203 474 203 474 164.5 432 c 128,-1,4
 126 390 126 390 126 329.5 c 128,-1,5
 126 269 126 269 164.5 227 c 128,-1,6
 203 185 203 185 263.5 185 c 128,-1,7
 324 185 324 185 362 227.5 c 128,-1,8
 400 270 400 270 400 330 c 256,0,1
381 476 m 1,9,-1
 464 556 l 1,10,-1
 493 524 l 1,11,-1
 411 444 l 1,12,13
 447 392 447 392 447 330.5 c 128,-1,14
 447 269 447 269 411 216 c 1,15,-1
 492 135 l 1,16,-1
 464 103 l 1,17,-1
 381 183 l 1,18,19
 327 140 327 140 262.5 140 c 128,-1,20
 198 140 198 140 146 183 c 1,21,-1
 63 103 l 1,22,-1
 33 135 l 1,23,-1
 115 216 l 1,24,25
 79 269 79 269 79 331 c 128,-1,26
 79 393 79 393 115 444 c 1,27,-1
 33 525 l 1,28,-1
 63 556 l 1,29,-1
 146 477 l 1,30,31
 198 520 198 520 262.5 520 c 128,-1,32
 327 520 327 520 381 476 c 1,9,-1
EndSplineSet
EndChar

StartChar: yen
Encoding: 165 165 103
Width: 599
GlyphClass: 2
Flags: W
LayerCount: 2
Fore
SplineSet
118 233 m 1,0,-1
 118 284 l 1,1,-1
 494 284 l 1,2,-1
 494 233 l 1,3,-1
 118 233 l 1,0,-1
118 116 m 1,4,-1
 118 167 l 1,5,-1
 494 167 l 1,6,-1
 494 116 l 1,7,-1
 118 116 l 1,4,-1
357 235 m 1,8,-1
 357 0 l 1,9,-1
 268 0 l 1,10,-1
 268 236 l 1,11,-1
 34 666 l 1,12,-1
 119 666 l 1,13,-1
 312 313 l 1,14,-1
 500 666 l 1,15,-1
 589 666 l 1,16,-1
 357 235 l 1,8,-1
EndSplineSet
EndChar

StartChar: brokenbar
Encoding: 166 166 104
Width: 290
GlyphClass: 2
Flags: W
LayerCount: 2
Fore
SplineSet
122 718 m 1,0,-1
 183 718 l 1,1,-1
 183 374 l 1,2,-1
 122 374 l 1,3,-1
 122 718 l 1,0,-1
122 242 m 1,4,-1
 183 242 l 1,5,-1
 183 -103 l 1,6,-1
 122 -103 l 1,7,-1
 122 242 l 1,4,-1
EndSplineSet
EndChar

StartChar: section
Encoding: 167 167 105
Width: 471
GlyphClass: 2
Flags: W
LayerCount: 2
Fore
SplineSet
315 262 m 1,0,1
 334 283 334 283 334 316 c 0,2,3
 334 367 334 367 259 392 c 0,4,5
 223 404 223 404 202.5 410.5 c 128,-1,6
 182 417 182 417 178 419 c 1,7,8
 149 401 149 401 149 368 c 128,-1,9
 149 335 149 335 164 321.5 c 128,-1,10
 179 308 179 308 234 290 c 128,-1,11
 289 272 289 272 315 262 c 1,0,1
86 27 m 1,12,13
 86 95 l 1,14,15
 174 52 174 52 239 52 c 2,16,-1
 243 52 l 2,17,18
 285 52 285 52 308.5 73.5 c 128,-1,19
 332 95 332 95 332 128.5 c 128,-1,20
 332 162 332 162 305 182.5 c 128,-1,21
 278 203 278 203 202 228 c 128,-1,22
 126 253 126 253 101.5 282.5 c 128,-1,23
 77 312 77 312 77 364.5 c 128,-1,24
 77 417 77 417 116 451 c 1,25,26
 75 482 75 482 75.5 543.5 c 128,-1,27
 76 605 76 605 118.5 641.5 c 128,-1,28
 161 678 161 678 239.5 678 c 128,-1,29
 318 678 318 678 386 643 c 1,30,-1
 367 584 l 1,31,32
 309 615 309 615 245 616 c 0,33,34
 151 616 151 616 152 547 c 0,35,36
 152 519 152 519 172.5 504 c 128,-1,37
 193 489 193 489 271.5 464 c 128,-1,38
 350 439 350 439 377 407 c 128,-1,39
 404 375 404 375 404 320.5 c 128,-1,40
 404 266 404 266 370 228 c 1,41,42
 403 195 403 195 403.5 128 c 128,-1,43
 404 61 404 61 357 26 c 128,-1,44
 310 -9 310 -9 234.5 -9 c 128,-1,45
 159 -9 159 -9 86 27 c 1,12,13
EndSplineSet
EndChar

StartChar: dieresis
Encoding: 168 168 106
Width: 410
GlyphClass: 4
Flags: W
LayerCount: 2
Fore
SplineSet
308 590 m 256,0,1
 284 590 284 590 271 604 c 128,-1,2
 258 618 258 618 258 639.5 c 128,-1,3
 258 661 258 661 270.5 674.5 c 128,-1,4
 283 688 283 688 307.5 688 c 128,-1,5
 332 688 332 688 344.5 674.5 c 128,-1,6
 357 661 357 661 357 639.5 c 128,-1,7
 357 618 357 618 344.5 604 c 128,-1,8
 332 590 332 590 308 590 c 256,0,1
109 590 m 0,9,10
 85 590 85 590 72.5 604 c 128,-1,11
 60 618 60 618 60 640 c 0,12,13
 60 689 60 689 109 688 c 0,14,15
 133 688 133 688 145 674.5 c 128,-1,16
 157 661 157 661 157 640 c 0,17,18
 157 590 157 590 109 590 c 0,9,10
EndSplineSet
EndChar

StartChar: copyright
Encoding: 169 169 107
Width: 751
GlyphClass: 2
Flags: W
LayerCount: 2
Fore
SplineSet
183.5 28.5 m 128,-1,1
 106 67 106 67 55 147 c 128,-1,2
 4 227 4 227 4 333 c 0,3,4
 4 492 4 492 107 584 c 128,-1,5
 210 676 210 676 348.5 676 c 128,-1,6
 487 676 487 676 592 589 c 0,7,8
 642 547 642 547 671.5 480.5 c 128,-1,9
 701 414 701 414 701 320.5 c 128,-1,10
 701 227 701 227 649.5 147 c 128,-1,11
 598 67 598 67 519.5 28.5 c 128,-1,12
 441 -10 441 -10 351 -10 c 128,-1,0
 261 -10 261 -10 183.5 28.5 c 128,-1,1
561.5 112.5 m 128,-1,14
 650 194 650 194 650 333 c 128,-1,15
 650 472 650 472 561.5 552.5 c 128,-1,16
 473 633 473 633 351 633 c 128,-1,17
 229 633 229 633 140.5 552.5 c 128,-1,18
 52 472 52 472 52 332.5 c 128,-1,19
 52 193 52 193 140.5 112 c 128,-1,20
 229 31 229 31 351 31 c 128,-1,13
 473 31 473 31 561.5 112.5 c 128,-1,14
359 108 m 0,21,22
 269 108 269 108 204.5 171 c 128,-1,23
 140 234 140 234 140 330.5 c 128,-1,24
 140 427 140 427 203.5 491.5 c 128,-1,25
 267 556 267 556 356 556 c 0,26,27
 425 556 425 556 488 516 c 1,28,-1
 467 474 l 1,29,30
 416 509 416 509 353.5 509.5 c 128,-1,31
 291 510 291 510 245.5 460.5 c 128,-1,32
 200 411 200 411 200 331 c 128,-1,33
 200 251 200 251 245.5 202.5 c 128,-1,34
 291 154 291 154 354.5 154 c 128,-1,35
 418 154 418 154 472 185 c 1,36,-1
 489 146 l 1,37,38
 428 108 428 108 359 108 c 0,21,22
EndSplineSet
EndChar

StartChar: guillemotleft
Encoding: 171 171 109
Width: 438
GlyphClass: 2
Flags: W
LayerCount: 2
Fore
SplineSet
333 67 m 1,0,-1
 202 252 l 1,1,-1
 334 438 l 1,2,-1
 409 438 l 1,3,-1
 281 254 l 1,4,-1
 407 67 l 1,5,-1
 333 67 l 1,0,-1
168 67 m 1,6,-1
 37 252 l 1,7,-1
 171 438 l 1,8,-1
 245 438 l 1,9,-1
 116 254 l 1,10,-1
 241 67 l 1,11,-1
 168 67 l 1,6,-1
EndSplineSet
EndChar

StartChar: logicalnot
Encoding: 172 172 110
Width: 546
GlyphClass: 2
Flags: W
LayerCount: 2
Fore
SplineSet
48 370 m 1,0,-1
 487 370 l 1,1,-1
 487 116 l 1,2,-1
 427 116 l 1,3,-1
 427 307 l 1,4,-1
 48 307 l 1,5,-1
 48 370 l 1,0,-1
EndSplineSet
EndChar

StartChar: uni00AD
Encoding: 173 173 111
Width: 386
GlyphClass: 2
Flags: W
LayerCount: 2
Fore
SplineSet
48 226 m 1,0,-1
 48 291 l 1,1,-1
 354 291 l 1,2,-1
 354 226 l 1,3,-1
 48 226 l 1,0,-1
EndSplineSet
EndChar

StartChar: registered
Encoding: 174 174 112
Width: 812
GlyphClass: 2
Flags: W
LayerCount: 2
Fore
SplineSet
419 -10 m 256,0,1
 331 -10 331 -10 255 28.5 c 128,-1,2
 179 67 179 67 129 146.5 c 128,-1,3
 79 226 79 226 79 333 c 128,-1,4
 79 440 79 440 129 519.5 c 128,-1,5
 179 599 179 599 255 637.5 c 128,-1,6
 331 676 331 676 419.5 676 c 128,-1,7
 508 676 508 676 584.5 637.5 c 128,-1,8
 661 599 661 599 711 519.5 c 128,-1,9
 761 440 761 440 761 333 c 128,-1,10
 761 226 761 226 711 146.5 c 128,-1,11
 661 67 661 67 584 28.5 c 128,-1,12
 507 -10 507 -10 419 -10 c 256,0,1
419 31 m 256,13,14
 539 31 539 31 625.5 112 c 128,-1,15
 712 193 712 193 712 332 c 128,-1,16
 712 471 712 471 625.5 552.5 c 128,-1,17
 539 634 539 634 419.5 634 c 128,-1,18
 300 634 300 634 214.5 553 c 128,-1,19
 129 472 129 472 129 332.5 c 128,-1,20
 129 193 129 193 214 112 c 128,-1,21
 299 31 299 31 419 31 c 256,13,14
341 373 m 1,22,-1
 435 373 l 2,23,24
 482 373 482 373 501 388.5 c 128,-1,25
 520 404 520 404 520 443 c 128,-1,26
 520 482 520 482 499 493.5 c 128,-1,27
 478 505 478 505 420 505 c 2,28,-1
 341 505 l 1,29,-1
 341 373 l 1,22,-1
287 135 m 1,30,-1
 287 551 l 1,31,-1
 428 551 l 2,32,33
 506 551 506 551 539 526 c 128,-1,34
 572 501 572 501 572 444 c 0,35,36
 572 345 572 345 485 335 c 1,37,38
 491 326 491 326 587 135 c 1,39,-1
 528 135 l 1,40,-1
 432 330 l 1,41,-1
 340 330 l 1,42,-1
 340 135 l 1,43,-1
 287 135 l 1,30,-1
EndSplineSet
EndChar

StartChar: macron
Encoding: 175 175 113
Width: 502
GlyphClass: 4
Flags: W
LayerCount: 2
Fore
SplineSet
121 606 m 1,0,-1
 121 652 l 1,1,-1
 389 652 l 1,2,-1
 389 606 l 1,3,-1
 121 606 l 1,0,-1
EndSplineSet
EndChar

StartChar: degree
Encoding: 176 176 114
Width: 384
GlyphClass: 2
Flags: W
LayerCount: 2
Fore
SplineSet
99 446.5 m 128,-1,1
 59 485 59 485 59 543 c 128,-1,2
 59 601 59 601 99 638.5 c 128,-1,3
 139 676 139 676 196 676 c 128,-1,4
 253 676 253 676 293.5 638.5 c 128,-1,5
 334 601 334 601 334 543.5 c 128,-1,6
 334 486 334 486 294 447 c 128,-1,7
 254 408 254 408 196.5 408 c 128,-1,0
 139 408 139 408 99 446.5 c 128,-1,1
257.5 478 m 128,-1,9
 283 503 283 503 283 541.5 c 128,-1,10
 283 580 283 580 257.5 605 c 128,-1,11
 232 630 232 630 196.5 630 c 128,-1,12
 161 630 161 630 136 605 c 128,-1,13
 111 580 111 580 111 541 c 128,-1,14
 111 502 111 502 135.5 477.5 c 128,-1,15
 160 453 160 453 196 453 c 128,-1,8
 232 453 232 453 257.5 478 c 128,-1,9
EndSplineSet
EndChar

StartChar: plusminus
Encoding: 177 177 115
Width: 498
GlyphClass: 2
Flags: W
LayerCount: 2
Fore
SplineSet
48 58 m 1,0,-1
 472 58 l 1,1,-1
 472 0 l 1,2,-1
 48 0 l 1,3,-1
 48 58 l 1,0,-1
226 515 m 1,4,-1
 287 515 l 1,5,-1
 287 340 l 1,6,-1
 453 340 l 1,7,-1
 453 281 l 1,8,-1
 288 281 l 1,9,-1
 288 101 l 1,10,-1
 226 101 l 1,11,-1
 226 281 l 1,12,-1
 57 281 l 1,13,-1
 57 340 l 1,14,-1
 226 340 l 1,15,-1
 226 515 l 1,4,-1
EndSplineSet
EndChar

StartChar: uni00B2
Encoding: 178 178 116
Width: 344
GlyphClass: 2
Flags: W
LayerCount: 2
Fore
SplineSet
70 295 m 1,0,-1
 70 344 l 1,1,2
 85 359 85 359 125.5 396 c 128,-1,3
 166 433 166 433 208.5 481 c 128,-1,4
 251 529 251 529 251 562.5 c 128,-1,5
 251 596 251 596 232 614.5 c 128,-1,6
 213 633 213 633 183 633 c 0,7,8
 116 633 116 633 79 584 c 1,9,-1
 52 624 l 1,10,11
 100 686 100 686 186 686 c 0,12,13
 237 686 237 686 273 654 c 128,-1,14
 309 622 309 622 309 559.5 c 128,-1,15
 309 497 309 497 243 430 c 0,16,17
 222 409 222 409 190 378 c 0,18,19
 174 363 174 363 154 344 c 1,20,-1
 309 344 l 1,21,-1
 304 295 l 1,22,-1
 70 295 l 1,0,-1
EndSplineSet
EndChar

StartChar: uni00B3
Encoding: 179 179 117
Width: 384
GlyphClass: 2
Flags: W
LayerCount: 2
Fore
SplineSet
77 327 m 1,0,1
 100 370 l 1,2,3
 138 334 138 334 199 334 c 0,4,5
 234 334 234 334 257 351.5 c 128,-1,6
 280 369 280 369 280 401.5 c 128,-1,7
 280 434 280 434 258 453 c 128,-1,8
 236 472 236 472 197 472 c 2,9,-1
 144 472 l 1,10,-1
 144 517 l 1,11,-1
 196 517 l 2,12,13
 275 517 275 517 275 579 c 0,14,15
 275 608 275 608 254.5 623.5 c 128,-1,16
 234 639 234 639 201 639 c 0,17,18
 143 639 143 639 101 604 c 1,19,-1
 79 642 l 1,20,21
 128 685 128 685 208 684 c 0,22,23
 260 684 260 684 294.5 659.5 c 128,-1,24
 329 635 329 635 329 584 c 0,25,26
 329 551 329 551 310 526.5 c 128,-1,27
 291 502 291 502 259 495 c 1,28,29
 292 487 292 487 312.5 461.5 c 128,-1,30
 333 436 333 436 333 399 c 0,31,32
 333 345 333 345 294.5 316 c 128,-1,33
 256 287 256 287 190.5 287 c 128,-1,34
 125 287 125 287 77 327 c 1,0,1
EndSplineSet
EndChar

StartChar: acute
Encoding: 180 180 118
Width: 321
GlyphClass: 4
Flags: W
LayerCount: 2
Fore
SplineSet
134 552 m 1,0,-1
 223 725 l 1,1,-1
 324 725 l 1,2,-1
 188 552 l 1,3,-1
 134 552 l 1,0,-1
EndSplineSet
EndChar

StartChar: paragraph
Encoding: 182 182 120
Width: 503
GlyphClass: 2
Flags: W
LayerCount: 2
Fore
SplineSet
295 608 m 1,0,-1
 295 -94 l 1,1,-1
 236 -94 l 1,2,-1
 236 349 l 1,3,4
 147 349 147 349 103.5 395 c 128,-1,5
 60 441 60 441 60 508 c 128,-1,6
 60 575 60 575 106 620.5 c 128,-1,7
 152 666 152 666 255 666 c 2,8,-1
 417 666 l 1,9,-1
 417 -94 l 1,10,-1
 359 -94 l 1,11,-1
 359 608 l 1,12,-1
 295 608 l 1,0,-1
EndSplineSet
EndChar

StartChar: periodcentered
Encoding: 183 183 121
Width: 284
GlyphClass: 2
Flags: W
LayerCount: 2
Fore
SplineSet
153 232 m 256,0,1
 129 232 129 232 114 246.5 c 128,-1,2
 99 261 99 261 99 284.5 c 128,-1,3
 99 308 99 308 114 322.5 c 128,-1,4
 129 337 129 337 153 337 c 128,-1,5
 177 337 177 337 191.5 322.5 c 128,-1,6
 206 308 206 308 206 284.5 c 128,-1,7
 206 261 206 261 191.5 246.5 c 128,-1,8
 177 232 177 232 153 232 c 256,0,1
EndSplineSet
EndChar

StartChar: cedilla
Encoding: 184 184 122
Width: 300
GlyphClass: 4
Flags: W
LayerCount: 2
Fore
SplineSet
89 -168 m 1,0,1
 104 -130 l 1,2,3
 132 -142 132 -142 160 -142 c 128,-1,4
 188 -142 188 -142 207.5 -128 c 128,-1,5
 227 -114 227 -114 227 -89 c 0,6,7
 227 -48 227 -48 177 -49 c 0,8,9
 167 -49 167 -49 152 -52 c 1,10,-1
 152 -27 l 1,11,12
 174 -19 174 -19 203.5 -19 c 128,-1,13
 233 -19 233 -19 255 -37.5 c 128,-1,14
 277 -56 277 -56 277 -95 c 128,-1,15
 277 -134 277 -134 244.5 -158.5 c 128,-1,16
 212 -183 212 -183 166.5 -183 c 128,-1,17
 121 -183 121 -183 89 -168 c 1,0,1
EndSplineSet
EndChar

StartChar: uni00B9
Encoding: 185 185 123
Width: 387
GlyphClass: 2
Flags: W
LayerCount: 2
Fore
SplineSet
120 287 m 1,0,-1
 120 339 l 1,1,-1
 198 339 l 1,2,-1
 198 614 l 1,3,4
 184 606 184 606 155.5 593.5 c 128,-1,5
 127 581 127 581 116 579 c 1,6,-1
 116 631 l 1,7,8
 189 659 189 659 211 679 c 1,9,-1
 262 679 l 1,10,-1
 262 339 l 1,11,-1
 338 339 l 1,12,-1
 338 287 l 1,13,-1
 120 287 l 1,0,-1
EndSplineSet
EndChar

StartChar: ordmasculine
Encoding: 186 186 124
Width: 423
GlyphClass: 2
Flags: W
LayerCount: 2
Fore
SplineSet
312 500 m 0,0,1
 312 560 312 560 288 593 c 128,-1,2
 264 626 264 626 219 626 c 0,3,4
 130 626 130 626 130 502.5 c 128,-1,5
 130 379 130 379 219 379 c 0,6,7
 312 378 312 378 312 500 c 0,0,1
105.5 629 m 128,-1,9
 147 678 147 678 220.5 678 c 128,-1,10
 294 678 294 678 334 629.5 c 128,-1,11
 374 581 374 581 374 503.5 c 128,-1,12
 374 426 374 426 331.5 376 c 128,-1,13
 289 326 289 326 218 326 c 128,-1,14
 147 326 147 326 105.5 375 c 128,-1,15
 64 424 64 424 64 502 c 128,-1,8
 64 580 64 580 105.5 629 c 128,-1,9
EndSplineSet
EndChar

StartChar: guillemotright
Encoding: 187 187 125
Width: 438
GlyphClass: 2
Flags: W
LayerCount: 2
Fore
SplineSet
278 67 m 1,0,-1
 205 67 l 1,1,-1
 331 254 l 1,2,-1
 202 438 l 1,3,-1
 277 438 l 1,4,-1
 410 253 l 1,5,-1
 278 67 l 1,0,-1
114 67 m 1,6,-1
 42 67 l 1,7,-1
 166 254 l 1,8,-1
 40 438 l 1,9,-1
 113 438 l 1,10,-1
 245 253 l 1,11,-1
 114 67 l 1,6,-1
EndSplineSet
EndChar

StartChar: onequarter
Encoding: 188 188 126
Width: 764
GlyphClass: 3
Flags: W
LayerCount: 2
Fore
SplineSet
520 136 m 1,0,-1
 636 136 l 1,1,-1
 636 314 l 1,2,-1
 520 136 l 1,0,-1
173 0 m 1,3,-1
 591 676 l 1,4,-1
 654 676 l 1,5,-1
 236 0 l 1,6,-1
 173 0 l 1,3,-1
638 0 m 1,7,-1
 638 87 l 1,8,-1
 453 87 l 1,9,-1
 453 132 l 1,10,-1
 632 392 l 1,11,-1
 697 392 l 1,12,-1
 697 136 l 1,13,-1
 749 136 l 1,14,-1
 752 87 l 1,15,-1
 697 87 l 1,16,-1
 697 0 l 1,17,-1
 638 0 l 1,7,-1
60 271 m 1,18,-1
 60 324 l 1,19,-1
 129 324 l 1,20,-1
 129 607 l 1,21,22
 114 599 114 599 56 574 c 1,23,-1
 56 628 l 1,24,25
 116 654 116 654 141 676 c 1,26,-1
 194 676 l 1,27,-1
 194 324 l 1,28,-1
 258 324 l 1,29,-1
 258 271 l 1,30,-1
 60 271 l 1,18,-1
EndSplineSet
Ligature2: "'frac' Diagonal Fractions lookup 1 subtable" one slash four
EndChar

StartChar: onehalf
Encoding: 189 189 127
Width: 777
GlyphClass: 3
Flags: W
LayerCount: 2
Fore
SplineSet
173 0 m 1,0,-1
 591 676 l 1,1,-1
 653 676 l 1,2,-1
 235 0 l 1,3,-1
 173 0 l 1,0,-1
62 271 m 1,4,-1
 62 323 l 1,5,-1
 131 323 l 1,6,-1
 131 608 l 1,7,8
 100 588 100 588 58 575 c 1,9,-1
 58 628 l 1,10,11
 120 655 120 655 145 676 c 1,12,-1
 197 676 l 1,13,-1
 197 323 l 1,14,-1
 260 323 l 1,15,-1
 260 271 l 1,16,-1
 62 271 l 1,4,-1
527 0 m 1,17,-1
 526 52 l 1,18,-1
 641 167 l 2,19,20
 678 205 678 205 691 228.5 c 128,-1,21
 704 252 704 252 704 280 c 128,-1,22
 704 308 704 308 684.5 324.5 c 128,-1,23
 665 341 665 341 635 341 c 0,24,25
 579 341 579 341 542 290 c 1,26,-1
 508 328 l 1,27,28
 526 360 526 360 561 379 c 128,-1,29
 596 398 596 398 644.5 398 c 128,-1,30
 693 398 693 398 730.5 366.5 c 128,-1,31
 768 335 768 335 768 286 c 128,-1,32
 768 237 768 237 748.5 205.5 c 128,-1,33
 729 174 729 174 682 130 c 2,34,-1
 602 54 l 1,35,-1
 763 54 l 1,36,-1
 761 0 l 1,37,-1
 527 0 l 1,17,-1
EndSplineSet
Ligature2: "'frac' Diagonal Fractions lookup 1 subtable" one slash two
EndChar

StartChar: threequarters
Encoding: 190 190 128
Width: 768
GlyphClass: 3
Flags: W
LayerCount: 2
Fore
SplineSet
539 136 m 1,0,-1
 657 136 l 1,1,-1
 657 314 l 1,2,-1
 539 136 l 1,0,-1
196 0 m 1,3,-1
 615 676 l 1,4,-1
 678 676 l 1,5,-1
 260 0 l 1,6,-1
 196 0 l 1,3,-1
657 0 m 1,7,-1
 657 87 l 1,8,-1
 473 87 l 1,9,-1
 473 132 l 1,10,-1
 652 392 l 1,11,-1
 718 392 l 1,12,-1
 718 136 l 1,13,-1
 770 136 l 1,14,-1
 772 87 l 1,15,-1
 717 87 l 1,16,-1
 717 0 l 1,17,-1
 657 0 l 1,7,-1
55 305 m 1,18,19
 77 352 l 1,20,21
 121 325 121 325 157.5 324.5 c 128,-1,22
 194 324 194 324 213 340.5 c 128,-1,23
 232 357 232 357 232 389 c 0,24,25
 232 455 232 455 153 454 c 2,26,-1
 108 454 l 1,27,-1
 108 508 l 1,28,-1
 152 508 l 2,29,30
 185 508 185 508 204 523.5 c 128,-1,31
 223 539 223 539 223 566 c 128,-1,32
 223 593 223 593 206.5 607.5 c 128,-1,33
 190 622 190 622 156.5 622 c 128,-1,34
 123 622 123 622 78 595 c 1,35,-1
 55 638 l 1,36,37
 104 675 104 675 160 675 c 128,-1,38
 216 675 216 675 250.5 650 c 128,-1,39
 285 625 285 625 285 576 c 0,40,41
 285 547 285 547 269 520.5 c 128,-1,42
 253 494 253 494 219 486 c 1,43,44
 253 476 253 476 273 449.5 c 128,-1,45
 293 423 293 423 293 390 c 0,46,47
 293 333 293 333 255 301.5 c 128,-1,48
 217 270 217 270 159.5 270.5 c 128,-1,49
 102 271 102 271 55 305 c 1,18,19
EndSplineSet
Ligature2: "'frac' Diagonal Fractions lookup 1 subtable" three slash four
EndChar

StartChar: AE
Encoding: 198 198 136
Width: 705
GlyphClass: 2
Flags: W
LayerCount: 2
Fore
SplineSet
357 272 m 1,0,-1
 357 590 l 1,1,-1
 192 272 l 1,2,-1
 357 272 l 1,0,-1
312 666 m 1,3,-1
 707 666 l 1,4,-1
 705 599 l 1,5,-1
 439 599 l 1,6,-1
 439 381 l 1,7,-1
 678 381 l 1,8,-1
 678 314 l 1,9,-1
 439 314 l 1,10,-1
 439 68 l 1,11,-1
 716 68 l 1,12,-1
 709 0 l 1,13,-1
 357 0 l 1,14,-1
 357 211 l 1,15,-1
 162 211 l 1,16,-1
 51 0 l 1,17,-1
 -43 0 l 1,18,-1
 312 666 l 1,3,-1
EndSplineSet
EndChar

StartChar: multiply
Encoding: 215 215 153
Width: 436
GlyphClass: 2
Flags: W
LayerCount: 2
Fore
SplineSet
52 440 m 1,0,-1
 96 486 l 1,1,-1
 226 345 l 1,2,-1
 354 485 l 1,3,-1
 399 438 l 1,4,-1
 269 298 l 1,5,6
 281 286 281 286 400 155 c 1,7,-1
 359 108 l 1,8,-1
 226 252 l 1,9,-1
 92 108 l 1,10,-1
 48 154 l 1,11,-1
 182 298 l 1,12,-1
 52 440 l 1,0,-1
EndSplineSet
EndChar

StartChar: Oslash
Encoding: 216 216 154
Width: 711
GlyphClass: 2
Flags: W
LayerCount: 2
Fore
SplineSet
370 60 m 0,0,1
 579 60 579 60 579 330 c 0,2,3
 579 503 579 503 498 566 c 1,4,-1
 309 69 l 1,5,6
 346 60 346 60 370 60 c 0,0,1
263 87 m 1,7,8
 453 591 l 1,9,10
 416 605 416 605 371 604 c 0,11,12
 162 604 162 604 162 330 c 0,13,14
 162 143 162 143 263 87 c 1,7,8
239 -115 m 1,15,-1
 192 -98 l 1,16,-1
 236 16 l 1,17,18
 71 86 71 86 71 330 c 0,19,20
 71 493 71 493 147 584 c 128,-1,21
 223 675 223 675 371 675 c 0,22,23
 434 675 434 675 478 659 c 1,24,-1
 521 773 l 1,25,-1
 570 754 l 1,26,-1
 526 639 l 1,27,28
 670 560 670 560 670 329 c 0,29,30
 670 172 670 172 594.5 81.5 c 128,-1,31
 519 -9 519 -9 371 -9 c 0,32,33
 323 -9 323 -9 283 0 c 1,34,-1
 239 -115 l 1,15,-1
EndSplineSet
EndChar

StartChar: Thorn
Encoding: 222 222 160
Width: 533
GlyphClass: 2
Flags: W
LayerCount: 2
Fore
SplineSet
87 0 m 1,0,-1
 87 682 l 1,1,-1
 176 682 l 1,2,-1
 176 539 l 1,3,-1
 258 539 l 2,4,5
 366 539 366 539 422.5 503 c 128,-1,6
 479 467 479 467 479 379 c 128,-1,7
 479 291 479 291 428.5 248 c 128,-1,8
 378 205 378 205 259 205 c 2,9,-1
 176 205 l 1,10,-1
 176 0 l 1,11,-1
 87 0 l 1,0,-1
176 475 m 1,12,-1
 176 269 l 1,13,-1
 256 269 l 2,14,15
 333 269 333 269 362 293 c 128,-1,16
 391 317 391 317 391 375.5 c 128,-1,17
 391 434 391 434 359.5 454.5 c 128,-1,18
 328 475 328 475 259 475 c 2,19,-1
 176 475 l 1,12,-1
EndSplineSet
EndChar

StartChar: germandbls
Encoding: 223 223 161
Width: 563
GlyphClass: 2
Flags: W
LayerCount: 2
Fore
SplineSet
233 26 m 1,0,1
 254 87 l 1,2,3
 307 57 307 57 378 57 c 0,4,5
 418 57 418 57 437.5 79 c 128,-1,6
 457 101 457 101 457 135 c 0,7,8
 457 184 457 184 396 233 c 0,9,10
 371 253 371 253 346 274 c 0,11,12
 286 323 286 323 286 367 c 0,13,14
 286 413 286 413 332 459 c 0,15,16
 349 476 349 476 364 504 c 128,-1,17
 379 532 379 532 379 566.5 c 128,-1,18
 379 601 379 601 355 622.5 c 128,-1,19
 331 644 331 644 286 644 c 0,20,21
 222 644 222 644 190 608 c 128,-1,22
 158 572 158 572 158 493 c 2,23,24
 158 0 l 1,25,-1
 76 0 l 1,26,-1
 76 493 l 2,27,28
 76 596 76 596 129.5 652.5 c 128,-1,29
 183 709 183 709 284 709 c 0,30,31
 362 709 362 709 409.5 669.5 c 128,-1,32
 457 630 457 630 457 564 c 0,33,34
 457 531 457 531 441.5 498.5 c 128,-1,35
 426 466 426 466 408.5 446 c 128,-1,36
 391 426 391 426 376 406 c 128,-1,37
 361 386 361 386 361 373 c 128,-1,38
 361 360 361 360 379 343 c 128,-1,39
 397 326 397 326 423 306 c 128,-1,40
 449 286 449 286 475.5 263 c 128,-1,41
 502 240 502 240 520.5 206.5 c 128,-1,42
 539 173 539 173 539 135 c 0,43,44
 539 67 539 67 499.5 29 c 128,-1,45
 460 -9 460 -9 382 -9 c 128,-1,46
 304 -9 304 -9 233 26 c 1,0,1
EndSplineSet
EndChar

StartChar: ae
Encoding: 230 230 168
Width: 728
GlyphClass: 2
Flags: W
LayerCount: 2
Fore
SplineSet
556 443 m 0,0,1
 493 443 493 443 456.5 401 c 128,-1,2
 420 359 420 359 416 277 c 1,3,4
 451 274 451 274 523 274 c 128,-1,5
 595 274 595 274 623 292.5 c 128,-1,6
 651 311 651 311 651 346 c 0,7,8
 651 443 651 443 556 443 c 0,0,1
337 163 m 1,9,10
 337 227 l 1,11,12
 284 233 284 233 222 233 c 128,-1,13
 160 233 160 233 133.5 207.5 c 128,-1,14
 107 182 107 182 107 137 c 128,-1,15
 107 92 107 92 135 71 c 128,-1,16
 163 50 163 50 211.5 50 c 128,-1,17
 260 50 260 50 297.5 79.5 c 128,-1,18
 335 109 335 109 337 163 c 1,9,10
673 244.5 m 128,-1,20
 620 215 620 215 521 215 c 0,21,22
 509 215 509 215 415 220 c 1,23,24
 426 52 426 52 571 52 c 0,25,26
 598 52 598 52 628 60 c 128,-1,27
 658 68 658 68 706 95 c 1,28,-1
 730 40 l 1,29,30
 657 -9 657 -9 561 -9 c 0,31,32
 430 -9 430 -9 378 94 c 1,33,34
 325 -9 325 -9 176 -9 c 0,35,36
 107 -6 107 -6 67.5 31 c 128,-1,37
 28 68 28 68 28 135 c 0,38,39
 28 286 28 286 220 286 c 0,40,41
 280 286 280 286 337 280 c 1,42,-1
 337 328 l 2,43,44
 337 389 337 389 312 415 c 128,-1,45
 287 441 287 441 232 441 c 0,46,47
 146 441 146 441 70 391 c 1,48,-1
 37 445 l 1,49,50
 123 503 123 503 230 503 c 0,51,52
 361 503 361 503 389 411 c 1,53,54
 440 504 440 504 554 503 c 0,55,56
 635 503 635 503 680.5 461 c 128,-1,57
 726 419 726 419 726 346.5 c 128,-1,19
 726 274 726 274 673 244.5 c 128,-1,20
EndSplineSet
EndChar

StartChar: eth
Encoding: 240 240 178
Width: 533
GlyphClass: 2
Flags: W
LayerCount: 2
Fore
SplineSet
387.5 339.5 m 128,-1,1
 345 387 345 387 274.5 387 c 128,-1,2
 204 387 204 387 163.5 340.5 c 128,-1,3
 123 294 123 294 123 223 c 128,-1,4
 123 152 123 152 163.5 102.5 c 128,-1,5
 204 53 204 53 277 53 c 128,-1,6
 350 53 350 53 390 100 c 128,-1,7
 430 147 430 147 430 219.5 c 128,-1,0
 430 292 430 292 387.5 339.5 c 128,-1,1
102 722 m 1,8,-1
 192 722 l 1,9,-1
 261 652 l 1,10,-1
 392 703 l 1,11,-1
 415 651 l 1,12,-1
 302 607 l 1,13,14
 423 475 423 475 463 397 c 0,15,16
 501 318 501 318 501 218.5 c 128,-1,17
 501 119 501 119 442.5 55 c 128,-1,18
 384 -9 384 -9 275.5 -9 c 128,-1,19
 167 -9 167 -9 106.5 58.5 c 128,-1,20
 46 126 46 126 46 224 c 128,-1,21
 46 322 46 322 108 383.5 c 128,-1,22
 170 445 170 445 266 445 c 0,23,24
 295 445 295 445 320 436.5 c 128,-1,25
 345 428 345 428 355 421.5 c 128,-1,26
 365 415 365 415 385 400 c 1,27,28
 345 474 345 474 239 580 c 1,29,-1
 123 535 l 1,30,-1
 100 588 l 1,31,-1
 200 627 l 1,32,-1
 102 722 l 1,8,-1
EndSplineSet
EndChar

StartChar: divide
Encoding: 247 247 185
Width: 515
GlyphClass: 2
Flags: W
LayerCount: 2
Fore
SplineSet
222 503 m 1,0,-1
 314 503 l 1,1,-1
 314 408 l 1,2,-1
 222 408 l 1,3,-1
 222 503 l 1,0,-1
222 112 m 1,4,-1
 313 112 l 1,5,-1
 313 15 l 1,6,-1
 222 15 l 1,7,-1
 222 112 l 1,4,-1
47 296 m 1,8,-1
 488 296 l 1,9,-1
 488 231 l 1,10,-1
 47 231 l 1,11,-1
 47 296 l 1,8,-1
EndSplineSet
EndChar

StartChar: oslash
Encoding: 248 248 186
Width: 529
GlyphClass: 2
Flags: W
LayerCount: 2
Fore
SplineSet
87 -57 m 1,0,-1
 416 566 l 1,1,-1
 449 548 l 1,2,-1
 116 -75 l 1,3,-1
 87 -57 l 1,0,-1
278 -9 m 256,4,5
 172 -9 172 -9 113 60.5 c 128,-1,6
 54 130 54 130 54 248.5 c 128,-1,7
 54 367 54 367 112.5 436 c 128,-1,8
 171 505 171 505 278 505 c 128,-1,9
 385 505 385 505 443 436 c 128,-1,10
 501 367 501 367 501 248.5 c 128,-1,11
 501 130 501 130 442.5 60.5 c 128,-1,12
 384 -9 384 -9 278 -9 c 256,4,5
278 52 m 256,13,14
 348 52 348 52 382 105 c 128,-1,15
 416 158 416 158 416 248 c 128,-1,16
 416 338 416 338 381.5 391 c 128,-1,17
 347 444 347 444 277.5 444 c 128,-1,18
 208 444 208 444 173.5 391 c 128,-1,19
 139 338 139 338 139 248 c 128,-1,20
 139 158 139 158 173.5 105 c 128,-1,21
 208 52 208 52 278 52 c 256,13,14
EndSplineSet
EndChar

StartChar: thorn
Encoding: 254 254 192
Width: 531
GlyphClass: 2
Flags: W
LayerCount: 2
Fore
SplineSet
51 155 m 1,0,-1
 131 155 l 1,1,-1
 131 -210 l 1,2,-1
 51 -210 l 1,3,-1
 51 155 l 1,0,-1
132 256 m 2,4,5
 132 114 l 1,6,7
 177 52 177 52 264 52 c 0,8,9
 308 52 308 52 337 76 c 0,10,11
 394 123 394 123 394 248 c 0,12,13
 394 445 394 445 272 444 c 0,14,15
 132 444 132 444 132 256 c 2,4,5
285 505 m 0,16,17
 382 505 382 505 430.5 435 c 128,-1,18
 479 365 479 365 479 248 c 256,19,20
 479 130 479 130 423.5 60.5 c 128,-1,21
 368 -9 368 -9 273 -9 c 128,-1,22
 178 -9 178 -9 126 52 c 1,23,24
 121 0 l 1,25,-1
 53 0 l 1,26,-1
 53 704 l 1,27,-1
 136 713 l 1,28,-1
 136 508 l 1,29,-1
 132 404 l 1,30,31
 174 505 174 505 285 505 c 0,16,17
EndSplineSet
EndChar

StartChar: Hbar
Encoding: 294 294 232
Width: 652
GlyphClass: 2
Flags: W
LayerCount: 2
Fore
SplineSet
29 584 m 1,0,-1
 646 584 l 1,1,-1
 646 528 l 1,2,-1
 29 528 l 1,3,-1
 29 584 l 1,0,-1
521 308 m 1,4,-1
 183 308 l 1,5,-1
 183 0 l 1,6,-1
 95 0 l 1,7,-1
 95 666 l 1,8,-1
 183 666 l 1,9,-1
 183 378 l 1,10,-1
 521 378 l 1,11,-1
 521 666 l 1,12,-1
 610 666 l 1,13,-1
 610 0 l 1,14,-1
 521 0 l 1,15,-1
 521 308 l 1,4,-1
EndSplineSet
EndChar

StartChar: dotlessi
Encoding: 305 305 243
Width: 231
GlyphClass: 2
Flags: W
LayerCount: 2
Fore
SplineSet
83 494 m 1,0,-1
 166 494 l 1,1,-1
 166 0 l 1,2,-1
 83 0 l 1,3,-1
 83 494 l 1,0,-1
EndSplineSet
EndChar

StartChar: kgreenlandic
Encoding: 312 312 250
Width: 477
GlyphClass: 2
Flags: W
LayerCount: 2
Fore
SplineSet
70 0 m 1,0,-1
 70 494 l 1,1,-1
 149 494 l 1,2,-1
 149 350 l 1,3,-1
 146 249 l 1,4,-1
 374 494 l 1,5,-1
 466 494 l 1,6,-1
 466 484 l 1,7,-1
 262 269 l 1,8,-1
 482 10 l 1,9,-1
 482 0 l 1,10,-1
 393 0 l 1,11,-1
 206 229 l 1,12,-1
 149 180 l 1,13,-1
 149 0 l 1,14,-1
 70 0 l 1,0,-1
EndSplineSet
EndChar

StartChar: Eng
Encoding: 330 330 268
Width: 666
GlyphClass: 2
Flags: W
LayerCount: 2
Fore
SplineSet
523 418 m 1,0,-1
 603 418 l 1,1,-1
 603 -2 l 2,2,3
 603 -113 603 -113 541.5 -156 c 128,-1,4
 480 -199 480 -199 335 -199 c 1,5,-1
 334 -134 l 1,6,7
 486 -134 486 -134 512 -80 c 0,8,9
 524 -54 524 -54 524 -1 c 2,10,-1
 523 418 l 1,0,-1
524 666 m 1,11,-1
 603 666 l 1,12,-1
 603 0 l 1,13,-1
 511 0 l 1,14,-1
 166 546 l 1,15,-1
 174 338 l 1,16,-1
 174 0 l 1,17,-1
 93 0 l 1,18,-1
 93 666 l 1,19,-1
 182 666 l 1,20,-1
 528 114 l 1,21,-1
 524 305 l 1,22,-1
 524 666 l 1,11,-1
EndSplineSet
EndChar

StartChar: eng
Encoding: 331 331 269
Width: 525
GlyphClass: 2
Flags: W
LayerCount: 2
Fore
SplineSet
399 58 m 1,0,-1
 483 58 l 1,1,-1
 483 -6 l 2,2,3
 483 -118 483 -118 425.5 -158.5 c 128,-1,4
 368 -199 368 -199 214 -199 c 1,5,-1
 213 -134 l 1,6,7
 276 -134 276 -134 313 -128.5 c 128,-1,8
 350 -123 350 -123 369.5 -105.5 c 128,-1,9
 389 -88 389 -88 394 -66.5 c 128,-1,10
 399 -45 399 -45 399 -4 c 2,11,-1
 399 58 l 1,0,-1
75 0 m 1,12,-1
 75 494 l 1,13,-1
 145 494 l 1,14,-1
 153 397 l 1,15,16
 198 505 198 505 319 505 c 0,17,18
 482 505 482 505 483 297 c 2,19,-1
 483 0 l 1,20,-1
 398 0 l 1,21,-1
 398 304 l 2,22,23
 398 372 398 372 377 408 c 128,-1,24
 356 444 356 444 303 444 c 0,25,26
 230 444 230 444 194 398 c 128,-1,27
 158 352 158 352 158 280 c 2,28,-1
 158 0 l 1,29,-1
 75 0 l 1,12,-1
EndSplineSet
EndChar

StartChar: OE
Encoding: 338 338 276
Width: 1034
GlyphClass: 2
Flags: W
LayerCount: 2
Fore
SplineSet
362 604 m 128,-1,1
 152 604 152 604 152 332 c 128,-1,2
 152 60 152 60 362 60 c 128,-1,3
 572 60 572 60 572 332 c 128,-1,0
 572 604 572 604 362 604 c 128,-1,1
139.5 584 m 128,-1,5
 216 675 216 675 359.5 675 c 128,-1,6
 503 675 503 675 572 580 c 1,7,-1
 572 666 l 1,8,-1
 1008 666 l 1,9,-1
 1005 599 l 1,10,-1
 658 599 l 1,11,-1
 658 378 l 1,12,-1
 978 378 l 1,13,-1
 978 311 l 1,14,-1
 658 311 l 1,15,-1
 658 68 l 1,16,-1
 1015 68 l 1,17,-1
 1010 0 l 1,18,-1
 572 0 l 1,19,-1
 572 82 l 1,20,21
 505 -10 505 -10 359 -9.5 c 128,-1,22
 213 -9 213 -9 138 81 c 128,-1,23
 63 171 63 171 63 332 c 128,-1,4
 63 493 63 493 139.5 584 c 128,-1,5
EndSplineSet
EndChar

StartChar: oe
Encoding: 339 339 277
Width: 838
GlyphClass: 2
Flags: W
LayerCount: 2
Fore
SplineSet
495 286 m 1,0,1
 759 286 l 1,2,3
 756 445 756 445 641 445 c 0,4,5
 582 445 582 445 541.5 402 c 128,-1,6
 501 359 501 359 495 286 c 1,0,1
271 52 m 256,7,8
 342 52 342 52 376.5 105 c 128,-1,9
 411 158 411 158 411 248 c 128,-1,10
 411 338 411 338 376.5 391 c 128,-1,11
 342 444 342 444 271.5 444 c 128,-1,12
 201 444 201 444 166 391 c 128,-1,13
 131 338 131 338 131 248.5 c 128,-1,14
 131 159 131 159 165.5 105.5 c 128,-1,15
 200 52 200 52 271 52 c 256,7,8
828 284 m 2,16,-1
 828 274 l 2,17,18
 828 259 828 259 824 233 c 1,19,-1
 493 233 l 1,20,21
 494 141 494 141 540 96.5 c 128,-1,22
 586 52 586 52 651.5 52 c 128,-1,23
 717 52 717 52 790 95 c 1,24,-1
 796 95 l 1,25,-1
 814 40 l 1,26,27
 742 -9 742 -9 649 -9 c 0,28,29
 588 -9 588 -9 532 24.5 c 128,-1,30
 476 58 476 58 454 111 c 1,31,32
 437 58 437 58 386 24.5 c 128,-1,33
 335 -9 335 -9 271 -9 c 0,34,35
 166 -9 166 -9 107.5 60.5 c 128,-1,36
 49 130 49 130 49 248.5 c 128,-1,37
 49 367 49 367 106.5 436 c 128,-1,38
 164 505 164 505 271 505 c 0,39,40
 334 505 334 505 384.5 473.5 c 128,-1,41
 435 442 435 442 456 389 c 1,42,43
 479 441 479 441 529.5 473 c 128,-1,44
 580 505 580 505 636 505 c 0,45,46
 724 505 724 505 776 445.5 c 128,-1,47
 828 386 828 386 828 284 c 2,16,-1
EndSplineSet
EndChar

StartChar: florin
Encoding: 402 402 321
Width: 453
GlyphClass: 2
Flags: W
LayerCount: 2
Fore
SplineSet
253 568 m 2,0,1
 280 709 280 709 397 709 c 0,2,3
 502 709 502 709 502 595 c 1,4,-1
 441 595 l 1,5,6
 439 668 439 668 400 668 c 2,7,-1
 399 668 l 2,8,9
 370 668 370 668 356 644.5 c 128,-1,10
 342 621 342 621 334 576 c 2,11,-1
 318 492 l 1,12,-1
 419 492 l 1,13,-1
 412 453 l 1,14,-1
 310 453 l 1,15,-1
 216 55 l 2,16,17
 196 -30 196 -30 150 -77 c 128,-1,18
 104 -124 104 -124 45 -124 c 0,19,20
 25 -124 25 -124 -2 -116 c 1,21,-1
 7 -77 l 1,22,23
 29 -81 29 -81 51 -81 c 0,24,25
 97 -81 97 -81 111 -53 c 0,26,27
 119 -37 119 -37 122 -25.5 c 128,-1,28
 125 -14 125 -14 129.5 13.5 c 128,-1,29
 134 41 134 41 137 55 c 2,30,-1
 232 453 l 1,31,-1
 154 453 l 1,32,-1
 162 492 l 1,33,-1
 238 492 l 1,34,-1
 253 568 l 2,0,1
EndSplineSet
EndChar

StartChar: uni0237
Encoding: 567 567 399
Width: 261
GlyphClass: 2
Flags: W
LayerCount: 2
Fore
SplineSet
110 494 m 1,0,-1
 193 494 l 1,1,-1
 193 -5 l 2,2,3
 193 -92 193 -92 162 -127.5 c 128,-1,4
 131 -163 131 -163 52 -176 c 1,5,-1
 23 -181 l 1,6,-1
 9 -116 l 1,7,-1
 40 -108 l 1,8,9
 90 -97 90 -97 100 -78 c 128,-1,10
 110 -59 110 -59 110 8 c 2,11,-1
 110 494 l 1,0,-1
EndSplineSet
EndChar

StartChar: uni0259
Encoding: 601 601 400
Width: 502
GlyphClass: 2
Flags: W
LayerCount: 2
Fore
SplineSet
395 210 m 1,0,1
 133 210 l 1,2,3
 135 52 135 52 251 52 c 0,4,5
 310 52 310 52 349.5 94.5 c 128,-1,6
 389 137 389 137 395 210 c 1,0,1
66 264 m 1,7,-1
 396 264 l 1,8,9
 391 356 391 356 348 400 c 128,-1,10
 305 444 305 444 239.5 444 c 128,-1,11
 174 444 174 444 100 402 c 1,12,-1
 95 402 l 1,13,-1
 76 457 l 1,14,15
 147 506 147 506 247 505.5 c 128,-1,16
 347 505 347 505 414.5 436 c 128,-1,17
 482 367 482 367 482 249 c 128,-1,18
 482 131 482 131 417 61 c 128,-1,19
 352 -9 352 -9 258 -9 c 128,-1,20
 164 -9 164 -9 112.5 50.5 c 128,-1,21
 61 110 61 110 61 213 c 0,22,23
 61 225 61 225 64 254 c 2,24,-1
 66 264 l 1,7,-1
EndSplineSet
EndChar

StartChar: uni02BC
Encoding: 700 700 401
Width: 282
GlyphClass: 2
Flags: W
LayerCount: 2
Fore
SplineSet
52 527 m 1,0,-1
 82 727 l 1,1,-1
 168 727 l 1,2,3
 161 686 161 686 116 527 c 1,4,-1
 52 527 l 1,0,-1
EndSplineSet
EndChar

StartChar: circumflex
Encoding: 710 710 402
Width: 388
GlyphClass: 4
Flags: W
LayerCount: 2
Fore
SplineSet
61 572 m 1,0,-1
 153 730 l 1,1,-1
 240 730 l 1,2,-1
 331 572 l 1,3,-1
 258 572 l 1,4,-1
 197 677 l 1,5,-1
 134 572 l 1,6,-1
 61 572 l 1,0,-1
EndSplineSet
EndChar

StartChar: caron
Encoding: 711 711 403
Width: 394
GlyphClass: 4
Flags: W
LayerCount: 2
Fore
SplineSet
153 566 m 1,0,-1
 62 725 l 1,1,-1
 135 725 l 1,2,-1
 197 620 l 1,3,-1
 258 725 l 1,4,-1
 331 725 l 1,5,-1
 240 566 l 1,6,-1
 153 566 l 1,0,-1
EndSplineSet
EndChar

StartChar: uni02C9
Encoding: 713 713 404
Width: 262
GlyphClass: 4
Flags: W
LayerCount: 2
Fore
SplineSet
-4 602 m 1,0,-1
 -4 661 l 1,1,-1
 276 661 l 1,2,-1
 276 602 l 1,3,-1
 -4 602 l 1,0,-1
EndSplineSet
EndChar

StartChar: breve
Encoding: 728 728 405
Width: 383
GlyphClass: 4
Flags: W
LayerCount: 2
Fore
SplineSet
193 589 m 256,0,1
 143 589 143 589 112 617.5 c 128,-1,2
 81 646 81 646 81 700 c 1,3,-1
 135 700 l 1,4,5
 135 671 135 671 152.5 656 c 128,-1,6
 170 641 170 641 193.5 641 c 128,-1,7
 217 641 217 641 235.5 656 c 128,-1,8
 254 671 254 671 254 700 c 1,9,-1
 306 700 l 1,10,11
 306 645 306 645 274.5 617 c 128,-1,12
 243 589 243 589 193 589 c 256,0,1
EndSplineSet
EndChar

StartChar: dotaccent
Encoding: 729 729 406
Width: 198
GlyphClass: 4
Flags: W
LayerCount: 2
Fore
SplineSet
164 654 m 256,0,1
 164 627 164 627 148 611 c 128,-1,2
 132 595 132 595 103.5 595 c 128,-1,3
 75 595 75 595 59 610.5 c 128,-1,4
 43 626 43 626 43 653.5 c 128,-1,5
 43 681 43 681 58.5 696 c 128,-1,6
 74 711 74 711 103 711 c 128,-1,7
 132 711 132 711 148 696 c 128,-1,8
 164 681 164 681 164 654 c 256,0,1
EndSplineSet
EndChar

StartChar: ring
Encoding: 730 730 407
Width: 312
GlyphClass: 4
Flags: W
LayerCount: 2
Fore
SplineSet
157 547 m 256,0,1
 119 547 119 547 95 571.5 c 128,-1,2
 71 596 71 596 71 632.5 c 128,-1,3
 71 669 71 669 95 693.5 c 128,-1,4
 119 718 119 718 157.5 718 c 128,-1,5
 196 718 196 718 221 693 c 128,-1,6
 246 668 246 668 246 632.5 c 128,-1,7
 246 597 246 597 220.5 572 c 128,-1,8
 195 547 195 547 157 547 c 256,0,1
157 584 m 256,9,10
 176 584 176 584 189 599 c 128,-1,11
 202 614 202 614 202 632.5 c 128,-1,12
 202 651 202 651 189 665 c 128,-1,13
 176 679 176 679 157 679 c 128,-1,14
 138 679 138 679 126 665 c 128,-1,15
 114 651 114 651 114 632 c 128,-1,16
 114 613 114 613 126 598.5 c 128,-1,17
 138 584 138 584 157 584 c 256,9,10
EndSplineSet
EndChar

StartChar: ogonek
Encoding: 731 731 408
Width: 336
GlyphClass: 4
Flags: W
LayerCount: 2
Fore
SplineSet
137.5 -174.5 m 128,-1,1
 115 -156 115 -156 115 -120.5 c 128,-1,2
 115 -85 115 -85 143.5 -49.5 c 128,-1,3
 172 -14 172 -14 208 2 c 1,4,-1
 246 2 l 1,5,6
 223 -15 223 -15 202 -47.5 c 128,-1,7
 181 -80 181 -80 181 -104 c 0,8,9
 181 -140 181 -140 218 -140 c 0,10,11
 245 -140 245 -140 268 -129 c 1,12,-1
 270 -179 l 1,13,14
 239 -194 239 -194 199.5 -193.5 c 128,-1,0
 160 -193 160 -193 137.5 -174.5 c 128,-1,1
EndSplineSet
EndChar

StartChar: tilde
Encoding: 732 732 409
Width: 434
GlyphClass: 4
Flags: W
LayerCount: 2
Fore
SplineSet
79 592 m 1,0,1
 79 639 79 639 99 663.5 c 128,-1,2
 119 688 119 688 152.5 688 c 128,-1,3
 186 688 186 688 231 668.5 c 128,-1,4
 276 649 276 649 286 649 c 0,5,6
 309 649 309 649 314 688 c 1,7,-1
 358 688 l 1,8,9
 358 642 358 642 339 617 c 128,-1,10
 320 592 320 592 291 592 c 128,-1,11
 262 592 262 592 214.5 614 c 128,-1,12
 167 636 167 636 153 636 c 0,13,14
 127 636 127 636 122 592 c 1,15,-1
 79 592 l 1,0,1
EndSplineSet
EndChar

StartChar: hungarumlaut
Encoding: 733 733 410
Width: 356
GlyphClass: 4
Flags: W
LayerCount: 2
Fore
SplineSet
199 570 m 1,0,-1
 266 730 l 1,1,-1
 352 730 l 1,2,-1
 248 570 l 1,3,-1
 199 570 l 1,0,-1
72 570 m 1,4,-1
 132 730 l 1,5,-1
 208 730 l 1,6,-1
 123 570 l 1,7,-1
 72 570 l 1,4,-1
EndSplineSet
EndChar

StartChar: uni0307
Encoding: 775 775 411
Width: 191
GlyphClass: 4
Flags: W
LayerCount: 2
Fore
SplineSet
160 664 m 0,0,1
 160 608 160 608 102 607.5 c 128,-1,2
 44 607 44 607 44 664 c 0,3,4
 44 718 44 718 102 718 c 128,-1,5
 160 718 160 718 160 664 c 0,0,1
EndSplineSet
EndChar

StartChar: uni030F
Encoding: 783 783 412
Width: 390
GlyphClass: 4
Flags: W
LayerCount: 2
Fore
SplineSet
256 570 m 1,0,-1
 171 730 l 1,1,-1
 248 730 l 1,2,-1
 307 570 l 1,3,-1
 256 570 l 1,0,-1
130 570 m 1,4,-1
 27 730 l 1,5,-1
 111 730 l 1,6,-1
 180 570 l 1,7,-1
 130 570 l 1,4,-1
EndSplineSet
EndChar

StartChar: uni0311
Encoding: 785 785 413
Width: 350
GlyphClass: 4
Flags: W
LayerCount: 2
Fore
SplineSet
75 589 m 1,0,1
 75 643 75 643 106 671.5 c 128,-1,2
 137 700 137 700 186 700 c 128,-1,3
 235 700 235 700 266.5 671.5 c 128,-1,4
 298 643 298 643 298 589 c 1,5,-1
 246 589 l 1,6,7
 246 618 246 618 228 633.5 c 128,-1,8
 210 649 210 649 186 649 c 128,-1,9
 162 649 162 649 145 633.5 c 128,-1,10
 128 618 128 618 128 589 c 1,11,-1
 75 589 l 1,0,1
EndSplineSet
EndChar

StartChar: uni0312
Encoding: 786 786 414
Width: 262
GlyphClass: 4
Flags: W
LayerCount: 2
Fore
SplineSet
90 596 m 1,0,1
 90 615 90 615 138 815 c 1,2,-1
 193 815 l 1,3,-1
 179 586 l 1,4,-1
 89 586 l 1,5,-1
 90 596 l 1,0,1
EndSplineSet
EndChar

StartChar: uni0326
Encoding: 806 806 415
Width: 268
GlyphClass: 4
Flags: W
LayerCount: 2
Fore
SplineSet
89 -239 m 1,0,-1
 95 -202 l 2,1,2
 111 -90 111 -90 110 -60 c 1,3,-1
 190 -60 l 1,4,5
 190 -80 190 -80 145 -239 c 1,6,-1
 89 -239 l 1,0,-1
EndSplineSet
EndChar

StartChar: uni0358
Encoding: 856 856 416
Width: 191
GlyphClass: 4
Flags: W
LayerCount: 2
Fore
SplineSet
160 664 m 0,0,1
 160 608 160 608 102 607.5 c 128,-1,2
 44 607 44 607 44 664 c 0,3,4
 44 718 44 718 102 718 c 128,-1,5
 160 718 160 718 160 664 c 0,0,1
EndSplineSet
EndChar

StartChar: uni0394
Encoding: 916 916 417
Width: 585
GlyphClass: 2
Flags: W
LayerCount: 2
Fore
SplineSet
121 70 m 1,0,-1
 486 70 l 1,1,-1
 303 595 l 1,2,-1
 121 70 l 1,0,-1
20 0 m 1,3,-1
 262 679 l 1,4,-1
 341 679 l 1,5,-1
 588 0 l 1,6,-1
 20 0 l 1,3,-1
EndSplineSet
EndChar

StartChar: Sigma
Encoding: 931 931 418
Width: 467
GlyphClass: 2
Flags: W
LayerCount: 2
Fore
SplineSet
40 666 m 1,0,-1
 453 666 l 1,1,-1
 453 595 l 1,2,-1
 151 595 l 1,3,-1
 358 283 l 1,4,-1
 141 -17 l 1,5,-1
 473 -17 l 1,6,-1
 473 -90 l 1,7,-1
 30 -90 l 1,8,-1
 30 -44 l 1,9,-1
 260 285 l 1,10,-1
 40 617 l 1,11,-1
 40 666 l 1,0,-1
EndSplineSet
EndChar

StartChar: uni03A9
Encoding: 937 937 419
Width: 703
GlyphClass: 2
Flags: W
LayerCount: 2
Fore
SplineSet
56 0 m 1,0,-1
 50 53 l 1,1,-1
 214 53 l 1,2,3
 142 103 142 103 99 180 c 128,-1,4
 56 257 56 257 56 353 c 0,5,6
 56 491 56 491 145 576 c 128,-1,7
 234 661 234 661 372.5 661 c 128,-1,8
 511 661 511 661 595 573.5 c 128,-1,9
 679 486 679 486 679 352 c 0,10,11
 679 258 679 258 633.5 182 c 128,-1,12
 588 106 588 106 519 53 c 1,13,-1
 681 53 l 1,14,-1
 676 0 l 1,15,-1
 445 0 l 1,16,-1
 444 51 l 1,17,18
 518 100 518 100 562.5 176 c 128,-1,19
 607 252 607 252 607 353 c 0,20,21
 607 454 607 454 545 528.5 c 128,-1,22
 483 603 483 603 372 603 c 0,23,24
 262 603 262 603 194.5 532 c 128,-1,25
 127 461 127 461 127 345 c 0,26,27
 127 252 127 252 170.5 175.5 c 128,-1,28
 214 99 214 99 290 51 c 1,29,-1
 290 0 l 1,30,-1
 56 0 l 1,0,-1
EndSplineSet
EndChar

StartChar: uni03BC
Encoding: 956 956 420
Width: 525
GlyphClass: 2
Flags: W
LayerCount: 2
Fore
SplineSet
396 118 m 1,0,1
 396 494 l 1,2,-1
 478 494 l 1,3,-1
 478 0 l 1,4,-1
 408 0 l 1,5,-1
 402 61 l 1,6,7
 346 -10 346 -10 248 -9 c 0,8,9
 191 -9 191 -9 154 10 c 1,10,11
 154 -132 l 1,12,-1
 71 -132 l 1,13,-1
 71 494 l 1,14,-1
 154 494 l 1,15,-1
 154 186 l 2,16,17
 154 119 154 119 178.5 85.5 c 128,-1,18
 203 52 203 52 259 52 c 0,19,20
 345 52 345 52 396 118 c 1,0,1
EndSplineSet
EndChar

StartChar: pi
Encoding: 960 960 421
Width: 634
GlyphClass: 2
Flags: W
LayerCount: 2
Fore
SplineSet
438.5 28 m 128,-1,1
 413 61 413 61 413 117.5 c 128,-1,2
 413 174 413 174 424 256 c 0,3,4
 428 284 428 284 435.5 337 c 128,-1,5
 443 390 443 390 446 414 c 1,6,-1
 274 414 l 1,7,-1
 261 152 l 2,8,9
 258 71 258 71 217.5 36.5 c 128,-1,10
 177 2 177 2 61 2 c 1,11,-1
 61 52 l 1,12,13
 109 52 109 52 145 82 c 128,-1,14
 181 112 181 112 190 182 c 2,15,-1
 219 414 l 1,16,-1
 162 414 l 2,17,18
 110 414 110 414 101 352 c 1,19,20
 56 352 l 1,21,22
 56 429 56 429 88 461.5 c 128,-1,23
 120 494 120 494 202 494 c 2,24,-1
 617 494 l 1,25,-1
 617 414 l 1,26,-1
 508 414 l 1,27,28
 491 288 491 288 491 199 c 0,29,30
 491 65 491 65 547 64 c 0,31,32
 564 64 564 64 589 74 c 0,33,34
 601 79 601 79 604 80 c 1,35,-1
 604 21 l 1,36,37
 578 -5 578 -5 521 -5 c 128,-1,0
 464 -5 464 -5 438.5 28 c 128,-1,1
EndSplineSet
EndChar

StartChar: endash
Encoding: 8211 8211 448
Width: 579
GlyphClass: 2
Flags: W
LayerCount: 2
Fore
SplineSet
33 239 m 1,0,-1
 33 298 l 1,1,-1
 570 298 l 1,2,-1
 570 239 l 1,3,-1
 33 239 l 1,0,-1
EndSplineSet
EndChar

StartChar: emdash
Encoding: 8212 8212 449
Width: 935
GlyphClass: 2
Flags: W
LayerCount: 2
Fore
SplineSet
27 235 m 1,0,-1
 27 301 l 1,1,-1
 945 301 l 1,2,-1
 945 235 l 1,3,-1
 27 235 l 1,0,-1
EndSplineSet
EndChar

StartChar: quoteleft
Encoding: 8216 8216 450
Width: 230
GlyphClass: 2
Flags: W
LayerCount: 2
Fore
SplineSet
182 687 m 1,0,-1
 160 466 l 1,1,-1
 72 466 l 1,2,-1
 123 687 l 1,3,-1
 182 687 l 1,0,-1
EndSplineSet
EndChar

StartChar: quoteright
Encoding: 8217 8217 451
Width: 230
GlyphClass: 2
Flags: W
LayerCount: 2
Fore
SplineSet
72 466 m 1,0,-1
 94 687 l 1,1,-1
 182 687 l 1,2,-1
 132 466 l 1,3,-1
 72 466 l 1,0,-1
EndSplineSet
EndChar

StartChar: quotesinglbase
Encoding: 8218 8218 452
Width: 201
GlyphClass: 2
Flags: W
LayerCount: 2
Fore
SplineSet
45 -144 m 1,0,-1
 71 74 l 1,1,-1
 153 74 l 1,2,-1
 101 -144 l 1,3,-1
 45 -144 l 1,0,-1
EndSplineSet
EndChar

StartChar: quotedblleft
Encoding: 8220 8220 453
Width: 397
GlyphClass: 2
Flags: W
LayerCount: 2
Fore
SplineSet
234 466 m 1,0,-1
 284 687 l 1,1,-1
 343 687 l 1,2,-1
 322 466 l 1,3,-1
 234 466 l 1,0,-1
72 466 m 1,4,-1
 123 687 l 1,5,-1
 182 687 l 1,6,-1
 160 466 l 1,7,-1
 72 466 l 1,4,-1
EndSplineSet
EndChar

StartChar: quotedblright
Encoding: 8221 8221 454
Width: 397
GlyphClass: 2
Flags: W
LayerCount: 2
Fore
SplineSet
72 466 m 1,0,-1
 94 687 l 1,1,-1
 182 687 l 1,2,-1
 132 466 l 1,3,-1
 72 466 l 1,0,-1
234 466 m 1,4,-1
 255 687 l 1,5,-1
 343 687 l 1,6,-1
 293 466 l 1,7,-1
 234 466 l 1,4,-1
EndSplineSet
EndChar

StartChar: quotedblbase
Encoding: 8222 8222 455
Width: 335
GlyphClass: 2
Flags: W
LayerCount: 2
Fore
SplineSet
191 -144 m 1,0,-1
 213 74 l 1,1,-1
 295 74 l 1,2,-1
 245 -144 l 1,3,-1
 191 -144 l 1,0,-1
50 -144 m 1,4,-1
 73 74 l 1,5,-1
 154 74 l 1,6,-1
 105 -144 l 1,7,-1
 50 -144 l 1,4,-1
EndSplineSet
EndChar

StartChar: dagger
Encoding: 8224 8224 456
Width: 465
GlyphClass: 2
Flags: W
LayerCount: 2
Fore
SplineSet
210 681 m 1,0,-1
 269 681 l 1,1,-1
 269 508 l 1,2,-1
 405 508 l 1,3,-1
 405 456 l 1,4,-1
 269 456 l 1,5,-1
 269 44 l 1,6,-1
 210 44 l 1,7,-1
 210 456 l 1,8,-1
 79 456 l 1,9,-1
 79 508 l 1,10,-1
 210 508 l 1,11,-1
 210 681 l 1,0,-1
EndSplineSet
EndChar

StartChar: daggerdbl
Encoding: 8225 8225 457
Width: 452
GlyphClass: 2
Flags: W
LayerCount: 2
Fore
SplineSet
210 673 m 1,0,-1
 267 673 l 1,1,-1
 267 498 l 1,2,-1
 395 498 l 1,3,-1
 395 448 l 1,4,-1
 269 448 l 1,5,-1
 269 251 l 1,6,-1
 395 251 l 1,7,-1
 395 203 l 1,8,-1
 268 203 l 1,9,-1
 268 26 l 1,10,-1
 210 26 l 1,11,-1
 210 203 l 1,12,-1
 81 203 l 1,13,-1
 81 251 l 1,14,-1
 210 251 l 1,15,-1
 210 448 l 1,16,-1
 81 448 l 1,17,-1
 81 498 l 1,18,-1
 210 498 l 1,19,-1
 210 673 l 1,0,-1
EndSplineSet
EndChar

StartChar: bullet
Encoding: 8226 8226 458
Width: 400
GlyphClass: 2
Flags: W
LayerCount: 2
Fore
SplineSet
100.5 226.5 m 128,-1,1
 59 267 59 267 59 336.5 c 128,-1,2
 59 406 59 406 102 448 c 128,-1,3
 145 490 145 490 205.5 490 c 128,-1,4
 266 490 266 490 309 449 c 128,-1,5
 352 408 352 408 352 338.5 c 128,-1,6
 352 269 352 269 308 227.5 c 128,-1,7
 264 186 264 186 203 186 c 128,-1,0
 142 186 142 186 100.5 226.5 c 128,-1,1
EndSplineSet
EndChar

StartChar: perthousand
Encoding: 8240 8240 460
Width: 1027
GlyphClass: 2
Flags: W
LayerCount: 2
Fore
SplineSet
857 -2 m 0,0,1
 783 -2 783 -2 748.5 46 c 128,-1,2
 714 94 714 94 714 173.5 c 128,-1,3
 714 253 714 253 749 301.5 c 128,-1,4
 784 350 784 350 857 350 c 0,5,6
 997 350 997 350 997 174 c 128,-1,7
 997 -2 997 -2 857 -2 c 0,0,1
922.5 79.5 m 128,-1,9
 940 113 940 113 940 175 c 128,-1,10
 940 237 940 237 923 269.5 c 128,-1,11
 906 302 906 302 857 302 c 128,-1,12
 808 302 808 302 790 269 c 128,-1,13
 772 236 772 236 772 174 c 128,-1,14
 772 112 772 112 790 79 c 128,-1,15
 808 46 808 46 856.5 46 c 128,-1,8
 905 46 905 46 922.5 79.5 c 128,-1,9
535 -2 m 0,16,17
 461 -2 461 -2 427.5 46 c 128,-1,18
 394 94 394 94 394 174 c 256,19,20
 394 254 394 254 428.5 302 c 128,-1,21
 463 350 463 350 536 350 c 128,-1,22
 609 350 609 350 643 302.5 c 128,-1,23
 677 255 677 255 677 174 c 0,24,25
 677 66 677 66 617 22 c 0,26,27
 585 -2 585 -2 535 -2 c 0,16,17
469 79 m 128,-1,29
 487 46 487 46 537 46 c 1,30,31
 587 46 587 46 605 84 c 0,32,33
 614 102 614 102 617 124 c 128,-1,34
 620 146 620 146 620 191.5 c 128,-1,35
 620 237 620 237 602 269.5 c 128,-1,36
 584 302 584 302 536 302 c 256,37,38
 487 302 487 302 469 269 c 128,-1,39
 451 236 451 236 451 174 c 128,-1,28
 451 112 451 112 469 79 c 128,-1,29
134 0 m 1,40,-1
 515 669 l 1,41,-1
 575 669 l 1,42,-1
 200 0 l 1,43,-1
 134 0 l 1,40,-1
176 327 m 0,44,45
 38 327 38 327 37 502 c 0,46,47
 37 582 37 582 70.5 630 c 128,-1,48
 104 678 104 678 176 678 c 0,49,50
 318 678 318 678 318 502 c 0,51,52
 318 422 318 422 284 374.5 c 128,-1,53
 250 327 250 327 176 327 c 0,44,45
110 407 m 128,-1,55
 128 374 128 374 177.5 374 c 128,-1,56
 227 374 227 374 245 413 c 0,57,58
 254 432 254 432 257 453 c 128,-1,59
 260 474 260 474 260 520 c 128,-1,60
 260 566 260 566 243 598 c 128,-1,61
 226 630 226 630 177 630 c 256,62,63
 128 630 128 630 110 597.5 c 128,-1,64
 92 565 92 565 92 502.5 c 128,-1,54
 92 440 92 440 110 407 c 128,-1,55
EndSplineSet
EndChar

StartChar: guilsinglleft
Encoding: 8249 8249 461
Width: 276
GlyphClass: 2
Flags: W
LayerCount: 2
Fore
SplineSet
174 69 m 1,0,-1
 44 253 l 1,1,-1
 176 439 l 1,2,-1
 251 439 l 1,3,-1
 122 254 l 1,4,-1
 248 69 l 1,5,-1
 174 69 l 1,0,-1
EndSplineSet
EndChar

StartChar: guilsinglright
Encoding: 8250 8250 462
Width: 336
GlyphClass: 2
Flags: W
LayerCount: 2
Fore
SplineSet
71 69 m 1,0,-1
 198 261 l 1,1,-1
 69 457 l 1,2,-1
 144 457 l 1,3,-1
 278 261 l 1,4,-1
 146 69 l 1,5,-1
 71 69 l 1,0,-1
EndSplineSet
EndChar

StartChar: fraction
Encoding: 8260 8260 463
Width: 458
GlyphClass: 2
Flags: W
LayerCount: 2
Fore
SplineSet
58 0 m 1,0,-1
 355 670 l 1,1,-1
 425 670 l 1,2,-1
 127 0 l 1,3,-1
 58 0 l 1,0,-1
EndSplineSet
EndChar

StartChar: uni2074
Encoding: 8308 8308 464
Width: 307
GlyphClass: 2
Flags: W
LayerCount: 2
Fore
SplineSet
82 425 m 1,0,-1
 187 425 l 1,1,-1
 187 605 l 1,2,-1
 82 425 l 1,0,-1
187 284 m 1,3,-1
 187 379 l 1,4,-1
 22 379 l 1,5,-1
 22 427 l 1,6,-1
 183 680 l 1,7,-1
 244 680 l 1,8,-1
 244 425 l 1,9,-1
 298 425 l 1,10,-1
 295 379 l 1,11,-1
 243 379 l 1,12,-1
 244 284 l 1,13,-1
 187 284 l 1,3,-1
EndSplineSet
EndChar

StartChar: Euro
Encoding: 8364 8364 465
Width: 611
GlyphClass: 2
Flags: W
LayerCount: 2
Fore
SplineSet
-24 241 m 1,0,-1
 -21 294 l 1,1,-1
 56 294 l 1,2,-1
 56 373 l 1,3,-1
 -21 373 l 1,4,-1
 -19 425 l 1,5,-1
 375 425 l 1,6,-1
 372 373 l 1,7,-1
 98 373 l 1,8,-1
 98 294 l 1,9,-1
 372 294 l 1,10,-1
 370 241 l 1,11,-1
 -24 241 l 1,0,-1
579 501 m 1,12,13
 514 478 l 1,14,-1
 508 478 l 1,15,16
 496 533 496 533 447.5 568.5 c 128,-1,17
 399 604 399 604 337 604 c 0,18,19
 238 604 238 604 182 535 c 128,-1,20
 126 466 126 466 126 333 c 128,-1,21
 126 200 126 200 182.5 130 c 128,-1,22
 239 60 239 60 337 60 c 0,23,24
 378 60 378 60 414.5 77 c 128,-1,25
 451 94 451 94 476 123 c 128,-1,26
 501 152 501 152 510 188 c 1,27,-1
 516 188 l 1,28,-1
 580 164 l 1,29,30
 562 81 562 81 491.5 36 c 128,-1,31
 421 -9 421 -9 332 -9 c 0,32,33
 197 -9 197 -9 116 81.5 c 128,-1,34
 35 172 35 172 35 333 c 128,-1,35
 35 494 35 494 116 585 c 128,-1,36
 197 676 197 676 332 676 c 0,37,38
 420 676 420 676 490.5 630 c 128,-1,39
 561 584 561 584 579 501 c 1,12,13
EndSplineSet
EndChar

StartChar: uni2113
Encoding: 8467 8467 466
Width: 534
GlyphClass: 2
Flags: W
LayerCount: 2
Fore
SplineSet
289 368 m 1,0,-1
 385 444 l 2,1,2
 445 492 445 492 474 534.5 c 128,-1,3
 503 577 503 577 503 632 c 0,4,5
 503 660 503 660 487.5 681.5 c 128,-1,6
 472 703 472 703 442 703 c 0,7,8
 432 703 432 703 411 697 c 128,-1,9
 390 691 390 691 378 673 c 0,10,11
 371 663 371 663 366.5 654.5 c 128,-1,12
 362 646 362 646 356 629 c 128,-1,13
 350 612 350 612 348 603 c 128,-1,14
 346 594 346 594 340.5 571 c 128,-1,15
 335 548 335 548 333 539 c 2,16,-1
 289 368 l 1,0,-1
155 226 m 1,17,18
 57 153 l 1,19,-1
 36 189 l 1,20,-1
 173 292 l 1,21,-1
 266 639 l 2,22,23
 302 772 302 772 421 772 c 0,24,25
 478 772 478 772 518 736 c 128,-1,26
 558 700 558 700 558 632 c 128,-1,27
 558 564 558 564 525 515 c 128,-1,28
 492 466 492 466 404 395 c 2,29,-1
 269 287 l 1,30,-1
 245 191 l 2,31,32
 235 147 235 147 235 124 c 0,33,34
 235 61 235 61 293 60 c 0,35,36
 342 60 342 60 418 101 c 1,37,-1
 430 45 l 1,38,-1
 410 31 l 2,39,40
 389 17 389 17 346 4 c 128,-1,41
 303 -9 303 -9 252.5 -9 c 128,-1,42
 202 -9 202 -9 170 22.5 c 128,-1,43
 138 54 138 54 138 110.5 c 128,-1,44
 138 167 138 167 155 226 c 1,17,18
EndSplineSet
EndChar

StartChar: trademark
Encoding: 8482 8482 467
Width: 966
GlyphClass: 2
Flags: W
LayerCount: 2
Fore
SplineSet
179 239 m 1,0,-1
 179 612 l 1,1,-1
 37 612 l 1,2,-1
 37 666 l 1,3,-1
 389 666 l 1,4,-1
 389 612 l 1,5,-1
 245 612 l 1,6,-1
 245 239 l 1,7,-1
 179 239 l 1,0,-1
445 239 m 1,8,-1
 453 666 l 1,9,-1
 523 666 l 1,10,-1
 670 363 l 1,11,-1
 820 666 l 1,12,-1
 886 666 l 1,13,-1
 894 239 l 1,14,-1
 836 239 l 1,15,-1
 832 576 l 1,16,-1
 694 289 l 1,17,-1
 646 289 l 1,18,-1
 508 579 l 1,19,-1
 505 239 l 1,20,-1
 445 239 l 1,8,-1
EndSplineSet
EndChar

StartChar: estimated
Encoding: 8494 8494 469
Width: 534
GlyphClass: 2
Flags: W
LayerCount: 2
Fore
SplineSet
459 275 m 1,0,1
 459 358 459 358 415 416 c 128,-1,2
 371 474 371 474 306 474 c 128,-1,3
 241 474 241 474 197 418 c 128,-1,4
 153 362 153 362 149 275 c 1,5,-1
 459 275 l 1,0,1
118 429.5 m 128,-1,7
 189 502 189 502 297 502 c 128,-1,8
 405 502 405 502 458.5 431.5 c 128,-1,9
 512 361 512 361 512 238 c 1,10,-1
 148 238 l 1,11,12
 148 140 148 140 189 82 c 128,-1,13
 230 24 230 24 307 24 c 0,14,15
 405 24 405 24 485 109 c 1,16,-1
 509 86 l 1,17,18
 430 -10 430 -10 305.5 -9.5 c 128,-1,19
 181 -9 181 -9 114 62 c 128,-1,20
 47 133 47 133 47 245 c 128,-1,6
 47 357 47 357 118 429.5 c 128,-1,7
EndSplineSet
EndChar

StartChar: partialdiff
Encoding: 8706 8706 470
Width: 519
GlyphClass: 2
Flags: W
LayerCount: 2
Fore
SplineSet
296.5 74.5 m 128,-1,1
 330 108 330 108 350 161 c 0,2,3
 391 268 391 268 397 379 c 1,4,5
 327 377 327 377 272 331.5 c 128,-1,6
 217 286 217 286 191.5 229.5 c 128,-1,7
 166 173 166 173 166 121 c 0,8,9
 166 41 166 41 229 41 c 0,10,0
 263 41 263 41 296.5 74.5 c 128,-1,1
399 442 m 1,11,12
 399 540 399 540 348.5 597 c 128,-1,13
 298 654 298 654 223 654 c 0,14,15
 176 654 176 654 127 631 c 1,16,-1
 108 677 l 1,17,18
 176 713 176 713 241 713 c 0,19,20
 343 713 343 713 410.5 632 c 128,-1,21
 478 551 478 551 478 415 c 0,22,23
 478 233 478 233 404.5 112.5 c 128,-1,24
 331 -8 331 -8 215 -8 c 0,25,26
 146 -8 146 -8 110.5 31.5 c 128,-1,27
 75 71 75 71 75 125.5 c 128,-1,28
 75 180 75 180 97 230.5 c 128,-1,29
 119 281 119 281 158.5 323.5 c 128,-1,30
 198 366 198 366 260.5 393.5 c 128,-1,31
 323 421 323 421 398 421 c 1,32,-1
 399 442 l 1,11,12
EndSplineSet
EndChar

StartChar: emptyset
Encoding: 8709 8709 471
Width: 737
GlyphClass: 2
Flags: W
LayerCount: 2
Fore
SplineSet
154 93 m 1,0,1
 52 193 52 193 52 334.5 c 128,-1,2
 52 476 52 476 151 574.5 c 128,-1,3
 250 673 250 673 375 673 c 128,-1,4
 500 673 500 673 596 588 c 1,5,-1
 677 678 l 1,6,-1
 694 666 l 1,7,-1
 612 573 l 1,8,9
 710 473 710 473 709.5 333.5 c 128,-1,10
 709 194 709 194 610 95.5 c 128,-1,11
 511 -3 511 -3 386.5 -3 c 128,-1,12
 262 -3 262 -3 168 79 c 1,13,-1
 80 -20 l 1,14,-1
 67 -6 l 1,15,-1
 154 93 l 1,0,1
182 94 m 1,16,17
 270 17 270 17 386 17 c 128,-1,18
 502 17 502 17 596 110 c 128,-1,19
 690 203 690 203 690 334 c 128,-1,20
 690 465 690 465 598 558 c 1,21,-1
 182 94 l 1,16,17
167 107 m 1,22,-1
 583 573 l 1,23,24
 495 653 495 653 376 653 c 128,-1,25
 257 653 257 653 164 560 c 128,-1,26
 71 467 71 467 70.5 334.5 c 128,-1,27
 70 202 70 202 167 107 c 1,22,-1
EndSplineSet
EndChar

StartChar: Delta
Encoding: 8710 8710 472
Width: 563
GlyphClass: 2
Flags: W
LayerCount: 2
Fore
SplineSet
307 547 m 1,0,-1
 292 601 l 1,1,-1
 277 547 l 1,2,-1
 120 79 l 1,3,-1
 467 79 l 1,4,-1
 307 547 l 1,0,-1
251 705 m 1,5,-1
 336 705 l 1,6,-1
 557 40 l 1,7,-1
 557 0 l 1,8,-1
 30 0 l 1,9,-1
 30 40 l 1,10,-1
 251 705 l 1,5,-1
EndSplineSet
EndChar

StartChar: product
Encoding: 8719 8719 473
Width: 675
GlyphClass: 2
Flags: W
LayerCount: 2
Fore
SplineSet
90 685 m 1,0,-1
 614 685 l 1,1,-1
 614 0 l 1,2,-1
 534 0 l 1,3,-1
 534 617 l 1,4,-1
 171 617 l 1,5,-1
 171 0 l 1,6,-1
 90 0 l 1,7,-1
 90 685 l 1,0,-1
EndSplineSet
EndChar

StartChar: minus
Encoding: 8722 8722 475
Width: 513
GlyphClass: 2
Flags: W
LayerCount: 2
Fore
SplineSet
48 304 m 1,0,-1
 489 304 l 1,1,-1
 489 239 l 1,2,-1
 48 239 l 1,3,-1
 48 304 l 1,0,-1
EndSplineSet
EndChar

StartChar: radical
Encoding: 8730 8730 478
Width: 508
GlyphClass: 2
Flags: W
LayerCount: 2
Fore
SplineSet
456 780 m 1,0,1
 514 780 l 1,2,-1
 314 -75 l 1,3,-1
 246 -75 l 1,4,-1
 98 341 l 1,5,-1
 29 328 l 1,6,-1
 23 383 l 1,7,-1
 141 411 l 1,8,9
 151 381 151 381 201 242.5 c 128,-1,10
 251 104 251 104 275 27 c 1,11,12
 365 417 365 417 456 780 c 1,0,1
EndSplineSet
EndChar

StartChar: infinity
Encoding: 8734 8734 479
Width: 729
GlyphClass: 2
Flags: W
LayerCount: 2
Fore
SplineSet
636 374 m 128,-1,1
 607 404 607 404 563 404 c 0,2,3
 491 404 491 404 415 289 c 1,4,5
 459 229 459 229 492 202 c 128,-1,6
 525 175 525 175 569.5 175 c 128,-1,7
 614 175 614 175 639.5 210 c 128,-1,8
 665 245 665 245 665 294.5 c 128,-1,0
 665 344 665 344 636 374 c 128,-1,1
343 288 m 1,9,10
 270 403 270 403 191 404 c 0,11,12
 144 404 144 404 115 370.5 c 128,-1,13
 86 337 86 337 86 290 c 128,-1,14
 86 243 86 243 116.5 209 c 128,-1,15
 147 175 147 175 193 175 c 0,16,17
 266 175 266 175 343 288 c 1,9,10
379 338 m 1,18,19
 422 398 422 398 466 430.5 c 128,-1,20
 510 463 510 463 565 463 c 0,21,22
 639 463 639 463 681 415.5 c 128,-1,23
 723 368 723 368 723 290.5 c 128,-1,24
 723 213 723 213 677 163 c 128,-1,25
 631 113 631 113 564 113 c 0,26,27
 469 113 469 113 379 238 c 1,28,29
 289 113 289 113 192 113 c 0,30,31
 119 113 119 113 76 166.5 c 128,-1,32
 33 220 33 220 33 293.5 c 128,-1,33
 33 367 33 367 79 415 c 128,-1,34
 125 463 125 463 185 463 c 128,-1,35
 245 463 245 463 289 431 c 128,-1,36
 333 399 333 399 379 338 c 1,18,19
EndSplineSet
EndChar

StartChar: integral
Encoding: 8747 8747 480
Width: 426
GlyphClass: 2
Flags: W
LayerCount: 2
Fore
SplineSet
233 528 m 2,0,1
 233 614 233 614 259 656 c 128,-1,2
 285 698 285 698 343 698 c 0,3,4
 361 698 361 698 399 691 c 1,5,-1
 399 643 l 1,6,7
 368 651 368 651 358 651 c 0,8,9
 321 651 321 651 307 622 c 128,-1,10
 293 593 293 593 293 532 c 2,11,-1
 293 -15 l 2,12,13
 293 -192 293 -192 172 -191 c 0,14,15
 147 -191 147 -191 118 -185 c 1,16,-1
 118 -135 l 1,17,18
 143 -141 143 -141 162 -141 c 0,19,20
 204 -141 204 -141 218.5 -111 c 128,-1,21
 233 -81 233 -81 233 -19 c 2,22,-1
 233 528 l 2,0,1
EndSplineSet
EndChar

StartChar: approxequal
Encoding: 8776 8776 481
Width: 505
GlyphClass: 2
Flags: W
LayerCount: 2
Fore
SplineSet
60 196 m 1,0,1
 37 239 l 1,2,3
 72 333 72 333 158 333 c 0,4,5
 202 333 202 333 275 299 c 128,-1,6
 348 265 348 265 373.5 265 c 128,-1,7
 399 265 399 265 424 285.5 c 128,-1,8
 449 306 449 306 463 337 c 1,9,-1
 488 297 l 1,10,11
 453 201 453 201 371 202 c 0,12,13
 334 202 334 202 266 234 c 0,14,15
 184 270 184 270 156 270 c 128,-1,16
 128 270 128 270 102 249 c 128,-1,17
 76 228 76 228 60 196 c 1,0,1
60 352 m 1,18,-1
 37 394 l 1,19,20
 72 488 72 488 158 488 c 0,21,22
 196 488 196 488 272 453.5 c 128,-1,23
 348 419 348 419 373.5 419 c 128,-1,24
 399 419 399 419 424 439.5 c 128,-1,25
 449 460 449 460 463 491 c 1,26,-1
 488 452 l 1,27,28
 452 356 452 356 371 357 c 0,29,30
 334 357 334 357 266 389 c 0,31,32
 184 425 184 425 156 425 c 128,-1,33
 128 425 128 425 102 404.5 c 128,-1,34
 76 384 76 384 60 352 c 1,18,-1
EndSplineSet
EndChar

StartChar: notequal
Encoding: 8800 8800 482
Width: 477
GlyphClass: 2
Flags: W
LayerCount: 2
Fore
SplineSet
145 22 m 1,0,-1
 98 30 l 1,1,-1
 150 160 l 1,2,-1
 33 160 l 1,3,-1
 31 217 l 1,4,-1
 177 217 l 1,5,-1
 246 358 l 1,6,-1
 33 358 l 1,7,-1
 30 415 l 1,8,-1
 272 415 l 1,9,-1
 334 548 l 1,10,-1
 382 542 l 1,11,-1
 331 415 l 1,12,-1
 453 415 l 1,13,-1
 458 357 l 1,14,-1
 305 357 l 1,15,-1
 234 216 l 1,16,-1
 454 216 l 1,17,-1
 458 160 l 1,18,-1
 209 160 l 1,19,-1
 145 22 l 1,0,-1
EndSplineSet
EndChar

StartChar: lessequal
Encoding: 8804 8804 483
Width: 523
GlyphClass: 2
Flags: W
LayerCount: 2
Fore
SplineSet
58 3 m 1,0,-1
 58 62 l 1,1,-1
 485 61 l 1,2,-1
 485 3 l 1,3,-1
 58 3 l 1,0,-1
472 111 m 1,4,-1
 67 330 l 1,5,-1
 67 368 l 1,6,-1
 471 598 l 1,7,-1
 471 530 l 1,8,-1
 151 349 l 1,9,-1
 472 178 l 1,10,-1
 472 111 l 1,4,-1
EndSplineSet
EndChar

StartChar: greaterequal
Encoding: 8805 8805 484
Width: 523
GlyphClass: 2
Flags: W
LayerCount: 2
Fore
SplineSet
59 4 m 1,0,-1
 59 62 l 1,1,-1
 486 62 l 1,2,-1
 486 4 l 1,3,-1
 59 4 l 1,0,-1
72 107 m 1,4,-1
 72 174 l 1,5,-1
 395 346 l 1,6,-1
 73 530 l 1,7,-1
 73 598 l 1,8,-1
 477 366 l 1,9,-1
 477 327 l 1,10,-1
 72 107 l 1,4,-1
EndSplineSet
EndChar

StartChar: lozenge
Encoding: 9674 9674 485
Width: 513
GlyphClass: 2
Flags: W
LayerCount: 2
Fore
SplineSet
270 635 m 1,0,1
 266 628 266 628 197 493 c 128,-1,2
 128 358 128 358 124 350 c 1,3,-1
 267 61 l 1,4,5
 403 333 403 333 412 349 c 1,6,-1
 270 635 l 1,0,1
245 722 m 1,7,-1
 293 722 l 1,8,-1
 482 350 l 1,9,-1
 290 -22 l 1,10,-1
 242 -22 l 1,11,-1
 55 349 l 1,12,-1
 245 722 l 1,7,-1
EndSplineSet
EndChar

StartChar: caron.alt
Encoding: 65539 -1 491
Width: 322
GlyphClass: 4
Flags: W
LayerCount: 2
Fore
SplineSet
211 529 m 1,0,-1
 228 705 l 1,1,-1
 309 705 l 1,2,-1
 272 529 l 1,3,-1
 211 529 l 1,0,-1
EndSplineSet
EndChar

StartChar: foundryicon
Encoding: 65541 -1 493
Width: 591
GlyphClass: 2
Flags: W
LayerCount: 2
Fore
SplineSet
128 1 m 1,0,-1
 193 210 l 1,1,-1
 16 345 l 1,2,-1
 237 345 l 1,3,-1
 306 555 l 1,4,-1
 379 345 l 1,5,-1
 600 345 l 1,6,-1
 421 210 l 1,7,-1
 488 1 l 1,8,-1
 306 127 l 1,9,-1
 128 1 l 1,0,-1
222 185 m 1,10,-1
 270 185 l 1,11,-1
 270 253 l 1,12,-1
 348 185 l 1,13,-1
 396 185 l 1,14,-1
 396 307 l 1,15,-1
 348 307 l 1,16,-1
 348 239 l 1,17,-1
 270 307 l 1,18,-1
 222 307 l 1,19,-1
 222 185 l 1,10,-1
EndSplineSet
EndChar

StartChar: slashbar
Encoding: 65544 -1 496
Width: 374
GlyphClass: 4
Flags: W
LayerCount: 2
Fore
SplineSet
84 222 m 1,0,-1
 84 283 l 1,1,-1
 355 432 l 1,2,-1
 355 370 l 1,3,-1
 84 222 l 1,0,-1
EndSplineSet
EndChar

